<?xml version="1.0" standalone="no"?> 
<!DOCTYPE svg PUBLIC "-//W3C//DTD SVG 1.1//EN" "http://www.w3.org/Graphics/SVG/1.1/DTD/svg11.dtd" >
<svg xmlns="http://www.w3.org/2000/svg">
<defs>
  <font id="iconfont" horiz-adv-x="2048">
    <font-face font-family="iconfont"
      units-per-em="2048" ascent="2048"
      descent="0" />
    <missing-glyph horiz-adv-x="0" />
    <glyph glyph-name="comma"
      unicode="&#x2C;"
      horiz-adv-x="1024" d=" M472 581L572 525L615 483Q637 461 652.5 404T662 321Q655 294 642 284.5T589.5 269.5T531.5 255.5T447 199.5T361.5 133T320 103.5T291 102.5T298 140Q303 150 322.5 174.5T383.5 268.5T433.5 367.5T433 427Q425 452 386 492.5T329.5 563T319.5 603.5T352 615Q358 615 418 598L472 581V581z" />
    <glyph glyph-name="period"
      unicode="&#x2E;"
      horiz-adv-x="1024" d=" M358 482Q360 517 379 553T428.5 606T492 623Q528 622 562.5 603T617.5 550T638 476Q637 437 616.5 404T568 355.5T513 337Q487 333 463.5 339T411 369T369 419.5T358 482z" />
    <glyph glyph-name="zero"
      unicode="&#x30;"
      horiz-adv-x="1025" d=" M537 1787Q608 1783 669.5 1756.5T782.5 1675.5T869.5 1559T928 1430.5T961.5 1283T970 1110Q967 1018 952.5 916T913 739.5T847.5 603T764.5 500.5T671 430T571 388Q490 368 420.5 389T300.5 448.5T213 536T149 645T101 779T70 933T61 1091Q62 1153 72.5 1232.5T98.5 1372.5T142.5 1502T214.5 1625.5T305.5 1716.5T411 1771.5T537 1787zM156 1105Q156 1026 169 927.5T205.5 756.5T259 637.5T337 549T436 497Q494 485 547.5 510T644 577T720.5 684T774 832.5T804.5 1016T812 1208Q808 1293 791.5 1368T744 1516T675 1628T588.5 1690T496 1714Q453 1714 404.5 1693T321 1638.5T257.5 1557T207.5 1449T170.5 1295T156 1105z" />
    <glyph glyph-name="one"
      unicode="&#x31;"
      horiz-adv-x="1022" d=" M612 1383V1115Q612 894 620 766.5T628 605Q627 546 619 497T592 402.5T561 359Q551 360 530.5 400T498 492.5T484 584.5T487.5 694T494 793L505 1202L499 1447Q498 1529 496 1566T482 1604.5T445 1584Q415 1559 406 1551L355 1510Q330 1488 308 1481.5T277 1485.5T286 1532Q295 1550 322 1585L353 1626L426 1714Q459 1761 473 1770T504 1783Q527 1787 565 1777.5T629 1749.5T658.5 1714.5T645 1652Q633 1621 625 1526L612 1383V1383z" />
    <glyph glyph-name="two"
      unicode="&#x32;"
      horiz-adv-x="1025" d=" M773 1505Q761 1573 720 1619.5T585 1675Q526 1679 479 1663T390.5 1616.5T317.5 1549T269 1477.5T228 1426T186 1424T175 1479Q181 1520 212 1571T286.5 1672T396 1749T537 1780Q655 1784 736.5 1742T858.5 1642T908.5 1500T891 1339Q874 1294 840 1240.5T765 1135.5T654 1006.5T486.5 836.5T388 743L309 657Q246 597 231 568T223.5 529T248.5 515.5T302 516Q347 520 438 526.5T549 535L658 544Q709 547 763 548.5T857 559T910 563Q928 555 944 524T967 456T967 406.5T910 398Q879 400 796 413.5T656.5 431.5T556 437Q498 437 430.5 432.5T313 422T221 409.5T162 403Q131 402 102.5 419T78 500Q80 530 99 563T161 648.5T287 787L449 952Q526 1032 597.5 1115T716 1271.5T771.5 1402T773 1505z" />
    <glyph glyph-name="three"
      unicode="&#x33;"
      horiz-adv-x="1025" d=" M711 1134Q798 1100 843.5 1065.5T923.5 958.5T962 827T951 699Q935 632 908 584.5T827 489.5T723 423.5T601 391.5T494 379Q449 379 383.5 395.5T272 438.5T192 499.5T139.5 558.5T96 618.5T62 673T59.5 707.5T100 716Q117 712 140 677T204 606.5T289.5 545.5T411 502.5T574 497Q667 509 729 557T816 693.5T829 854Q814 940 761 989T608 1049Q543 1055 495 1041.5T436 1033Q421 1039 415 1056.5T401 1106T396 1149Q398 1160 409.5 1170.5T478.5 1175.5T583 1187.5T669 1247.5T731.5 1353.5T752 1479Q748 1554 709 1600T608 1659Q560 1668 513 1655.5T434.5 1622.5T367.5 1562.5T307 1482T267 1439.5T217 1468Q186 1493 171.5 1512T159 1551Q160 1570 218 1609L295 1669Q351 1712 403 1730.5T506 1758.5T604 1767Q677 1765 733.5 1737.5T826 1668T883 1557T883 1398Q858 1292 780.5 1214T711 1134z" />
    <glyph glyph-name="four"
      unicode="&#x34;"
      horiz-adv-x="1022" d=" M761 776Q763 671 765 608T767 516Q765 461 756.5 426.5T730 362.5T695.5 330T654 376Q634 412 629 450T626 543L631 636L634 780Q605 779 581.5 778T454.5 768.5T311 753L240 739Q186 728 153.5 717.5T109 714Q94 720 83.5 746.5T63.5 816T59 873Q63 882 94.5 902.5T159.5 963.5T247 1097T351.5 1286.5T448 1479T521.5 1650.5T556 1742T564.5 1777T570.5 1798.5T585 1802Q606 1802 641.5 1785T701 1752.5T727 1715Q728 1697 718 1684L694 1648Q733 1635 760 1620T790.5 1590T785.5 1544T775 1461L768 1344Q762 1250 761 1122L758 908Q787 911 802 911L872 904Q927 898 941 887.5T964.5 856T969 800.5T954 759T920 756.5T831 769L761 776V776zM638 904Q640 1031 640.5 1115T641 1368Q640 1463 639 1489L635 1569Q569 1459 522 1381.5T396.5 1181.5T276.5 999T214.5 903T201.5 858T234.5 848T305.5 854.5T403 870L533 888L638 904V904z" />
    <glyph glyph-name="five"
      unicode="&#x35;"
      horiz-adv-x="1023" d=" M319 1583H373L598 1603L799 1608Q809 1608 880.5 1595.5T961 1570.5T973 1542T959 1510.5T929 1496L810 1497L762 1499Q696 1501 590.5 1492T458 1477L338 1453L295 1445Q274 1360 264.5 1318.5T236.5 1219T227.5 1157.5T291 1185Q332 1208 396 1226T513 1251Q592 1260 660 1244T790 1189T892.5 1092.5T949.5 969T965 827Q962 740 939.5 672T874 544T769 445T642 388T509 370Q419 369 333.5 394.5T187.5 461T98.5 540.5T54.5 618T48 663T88 652Q107 640 159 598.5T283.5 522.5T443 478Q525 467 598.5 485.5T726.5 554.5T806 675.5T832.5 833T797.5 995.5T689.5 1104T540 1137Q466 1136 394 1115.5T276 1073T198.5 1019.5T149 986T108.5 1013.5T85.5 1066T98 1129Q114 1181 127 1228.5T153 1364T174 1528T182 1647Q181 1683 177 1700.5T165 1743T161.5 1784T225 1792L300 1772Q337 1763 347.5 1754.5T362 1729L346 1670L319 1583V1583z" />
    <glyph glyph-name="six"
      unicode="&#x36;"
      horiz-adv-x="1024" d=" M139 1107Q176 1152 204.5 1179.5T290 1242T407.5 1296.5T541 1321Q605 1324 659.5 1313T771 1270.5T865.5 1198.5T929.5 1096.5T969.5 953.5T968 781Q952 687 910 613T816 491T707 418.5T586 387Q519 379 464.5 389T356 423.5T254 488.5T161 600T98.5 728.5T68.5 855.5T56 986.5T63 1118Q71 1195 86.5 1263T133.5 1406T203 1538.5T289 1644T383 1719.5T488.5 1762.5T606 1778Q668 1777 729.5 1759.5T835 1718.5T922.5 1663.5T971 1615.5T953 1559Q934 1526 914 1498T882 1469.5T847 1517Q810 1589 754 1625.5T618 1669Q554 1674 496.5 1655.5T379 1593.5T275.5 1489.5T200 1351.5T155 1192.5T139 1107zM143 954Q138 922 154 839.5T205.5 693T307.5 572T447 498T580 494Q642 507 697 550.5T786 667T831.5 831.5T823 1008Q805 1082 762.5 1136.5T661.5 1213.5T541 1235Q471 1233 401.5 1207.5T270 1135T177.5 1035.5T143 954z" />
    <glyph glyph-name="seven"
      unicode="&#x37;"
      horiz-adv-x="1025" d=" M197 1745L478 1767L619 1770L769 1758Q858 1758 908 1737.5T961.5 1696.5T944 1633Q932 1609 892 1506T847 1390T801 1241L745 1063Q717 971 683 836T627.5 628.5T584.5 512T528.5 416T476 371Q462 375 450 404T432.5 484.5T434 572Q440 609 462 643L502 699Q517 722 541 787L593 921Q620 995 650.5 1093T699 1257.5T731 1383L755 1489Q769 1548 766 1583.5T740 1639.5T664 1660Q636 1659 554 1648L403 1628Q368 1622 288 1604T155.5 1564T91 1557Q84 1563 78 1589T61 1658.5T62 1717Q68 1724 111 1732L197 1745V1745z" />
    <glyph glyph-name="eight"
      unicode="&#x38;"
      horiz-adv-x="1023" d=" M306 1126Q277 1146 251.5 1168T195.5 1236.5T148 1346T145 1495Q154 1553 180 1606.5T249.5 1697.5T347 1751.5T475 1774Q556 1780 614.5 1770.5T726 1731.5T815 1666T880 1573.5T918.5 1450.5T909 1322Q895 1278 861.5 1232T803 1173L730 1130Q793 1086 836.5 1050T922.5 947.5T966.5 782.5T935 609Q913 559 875 514.5T793 442.5T685 395T533 374Q483 373 428 379.5T321.5 402.5T204 472T110 584.5T74 690.5T68 788Q72 864 93.5 910.5T150.5 1006.5T217 1073L306 1126V1126zM179 667Q198 618 248.5 570T376 494T545 480Q619 490 674.5 529T759 629T789.5 764.5T765 900Q745 943 708 981T616 1041.5T511 1072Q449 1080 402 1071T317 1039.5T243.5 976T186.5 887.5T162 776.5T179 667zM508 1171Q552 1174 598 1190T680 1238T741 1320.5T766.5 1436T736 1557Q701 1617 648.5 1644.5T545 1682Q469 1695 406 1678.5T304.5 1627.5T247.5 1540.5T228.5 1428T261 1308Q288 1257 336.5 1220.5T427.5 1175.5T508 1171z" />
    <glyph glyph-name="nine"
      unicode="&#x39;"
      horiz-adv-x="1025" d=" M845 1085Q816 1042 794 1013.5T733 953.5T636.5 893T514 858Q451 851 389 867T279 917T191.5 1005.5T131.5 1132.5T116 1301Q119 1378 139.5 1450T201.5 1586.5T296.5 1694.5T417.5 1760.5T552 1781Q612 1778 680.5 1751.5T802 1677T891.5 1555T950 1385T971 1158Q969 1060 953 950.5T912.5 766T852.5 625T773 509T677.5 426.5T573.5 381.5T457 372Q393 374 337.5 389.5T235 436.5T150 508.5T87.5 567.5T59 598.5T77 655T115.5 719.5T143 739Q151 737 162.5 703T198.5 628T256 553.5T351.5 492.5T463 465Q508 464 560.5 484.5T652.5 538.5T730 635T792 775.5T829.5 967.5T845 1085zM824 1284Q825 1315 813 1379.5T766.5 1511T687 1616T584 1669.5T474 1678Q394 1665 326.5 1606T229.5 1477.5T197 1330.5T208 1197Q227 1119 273.5 1064.5T379.5 986.5T504 969Q561 974 621 1002.5T727.5 1075.5T797.5 1178.5T824 1284z" />
    <glyph glyph-name="A"
      unicode="&#x41;"
      horiz-adv-x="1344" d=" M763 1682L1120 928Q1184 792 1212 715L1257 581Q1267 549 1273.5 523.5T1276 455Q1274 444 1267 399T1246 350T1200 381Q1174 407 1146.5 449.5T1104 528.5T1069 641L1024 798Q996 895 977 942.5T937.5 1000T876 1007Q825 1003 750 993T633.5 979T538.5 974T462.5 969T418 950.5T368.5 867T289.5 694T205.5 518.5T153 421.5T104.5 372T62.5 350.5T64 424Q73 468 83.5 490.5T146.5 610.5T245 801L316 943Q356 1024 379 1077L459 1263Q482 1317 522.5 1421T579.5 1571.5T606.5 1655.5T623.5 1737.5T641 1788.5T684 1785Q705 1777 746.5 1758.5T783 1733L763 1682V1682zM546 1088Q576 1090 657.5 1102.5T753 1117L842 1124Q877 1129 885.5 1140.5T866 1207Q851 1235 829 1293.5T781.5 1411T731 1517.5T691 1566.5T649 1496Q625 1432 607 1392L557 1284Q521 1203 496 1156.5T482 1097T546 1088z" />
    <glyph glyph-name="B"
      unicode="&#x42;"
      horiz-adv-x="1215" d=" M278 1750Q386 1757 476 1764.5T606 1774Q692 1777 757 1769T881.5 1739T982 1679T1044.5 1592.5T1065 1489Q1064 1445 1048 1404T991.5 1315.5T917 1251L800 1184Q875 1162 912.5 1146.5T989.5 1106T1067 1040.5T1128 944T1151 816Q1150 721 1110.5 644.5T1011.5 516T871.5 431.5T700 387.5T529 388Q462 397 398.5 418.5T287 467.5T226 489Q213 482 200.5 443T173.5 388.5T147 374Q130 374 115 421.5T95 503.5T92 579Q93 604 106.5 691.5T124 871L127 983L136 1125L137 1291L141 1461Q140 1532 140.5 1546T137 1568Q129 1580 114 1580L88 1576Q76 1578 67 1610T53.5 1676.5T54 1722Q62 1737 121 1738T278 1750zM215 717Q216 659 223 625T249.5 565T345.5 512.5T507 480Q579 474 661.5 484.5T817 524.5T949.5 626T1015 791.5T982 955Q934 1037 857 1067.5T698 1104Q608 1109 511 1097L377 1077Q293 1066 263.5 1055.5T222 1028.5T213 967.5T214.5 854T215 717zM930 1528Q911 1589 850 1627.5T689 1663Q625 1660 541 1643L414 1615Q358 1603 304 1596.5T236.5 1577.5T224.5 1526T222 1381L219 1276Q215 1223 222.5 1203T251 1167.5T365 1176Q373 1178 481.5 1197T661 1238T786 1290T878.5 1366T926 1460T930 1528z" />
    <glyph glyph-name="C"
      unicode="&#x43;"
      horiz-adv-x="1307" d=" M61 1114Q61 1150 67 1199T92.5 1322.5T143.5 1459T229.5 1580.5T351.5 1686T492.5 1756.5T657 1783Q755 1784 845.5 1757T1007.5 1683T1145.5 1576T1209 1490Q1206 1470 1176 1441T1102.5 1383.5T1043 1364Q1032 1369 1019 1414.5T969 1516T881.5 1610.5T767.5 1662.5T637 1669Q545 1658 456 1609T313.5 1474.5T238 1294.5T210.5 1099T224 895Q244 783 286.5 711.5T391 588.5T533 511.5T709 496Q808 506 884.5 549T1022 660.5T1124 803L1179 909Q1200 948 1216.5 946.5T1245 926.5T1238 860Q1200 766 1174 709T1101 589.5T989.5 479.5T838 402.5T611 382Q506 388 433 414.5T284.5 500T165.5 624.5T97.5 777T66.5 951.5T61 1114z" />
    <glyph glyph-name="D"
      unicode="&#x44;"
      horiz-adv-x="1232" d=" M574 1786Q666 1780 736.5 1769.5T889 1718.5T1029.5 1607T1121.5 1438.5T1163.5 1262.5T1163 1083Q1149 935 1113 832.5T1026 651T899 507T736.5 413T552 386Q460 386 411 399.5T299 435L233 457Q227 436 221.5 413.5T203 381.5T178 375Q163 377 146 407.5T121 466T114 528Q114 546 121 602T135 791.5T146 1036.5T151 1230V1413Q151 1511 150.5 1537T141 1569Q132 1573 114 1568.5T84 1565.5T63.5 1606.5T60 1695Q63 1723 73 1736.5T124.5 1752.5T262.5 1766T426.5 1780T574 1786zM250 1447L234 879L229 745Q227 671 223 619T237 543Q253 520 289 507.5T388 486.5T511 482Q587 486 662.5 513.5T802 593.5T906 712.5T976 875T1016 1043.5T1024 1205Q1021 1305 1001 1373.5T935 1506.5T824.5 1605.5T680 1648Q618 1653 523 1642T359.5 1617.5T277 1580.5T257 1521.5T250 1447z" />
    <glyph glyph-name="E"
      unicode="&#x45;"
      horiz-adv-x="1225" d=" M761 1779L904 1770Q942 1767 991.5 1749.5T1058 1720T1079.5 1701.5T1061 1669T1029 1644L828 1664Q765 1670 682 1665T489 1651T350.5 1612T315.5 1558T302 1454L290 1319Q286 1276 302.5 1254.5T377 1232Q415 1230 491 1239.5T649 1256L749 1264Q809 1267 839 1262L900 1248Q937 1242 948.5 1234.5T962 1216.5T947 1184.5T901 1163L693 1157L626 1145Q532 1132 486.5 1124.5T384.5 1104T306.5 1066.5T286 987L279 751Q276 690 273 649.5T283.5 575T319 544L408 537L612 552L843 556H973Q1000 556 1058 546T1136.5 522T1159 484.5T1145 453T1100 445L910 441Q750 437 665 434L479 425Q388 420 354.5 411.5T287.5 386T241 371Q225 372 198 393.5T158.5 434T147 481Q147 486 164 542T182 679L186 864L192 1169Q189 1333 183 1414L174 1516Q170 1563 157 1581.5T123 1602H83Q75 1605 62.5 1646.5T49.5 1699.5T56 1721T107 1739L209 1754L490 1775z" />
    <glyph glyph-name="F"
      unicode="&#x46;"
      horiz-adv-x="1224" d=" M197 1160Q195 1303 193.5 1377T185 1496T160.5 1557T125 1574H84Q74 1579 67 1615L56 1667Q52 1701 62 1715Q67 1722 112 1730L214 1745L495 1767L766 1770L988 1750Q998 1749 1070 1730.5T1150.5 1695.5T1157 1656T1139 1621.5T1109 1612L908 1631Q802 1640 696 1636L486 1626Q393 1627 357.5 1610.5T312.5 1574T298.5 1410T293.5 1337T294 1413L292 1323Q291 1280 310 1260T383 1236Q452 1230 567.5 1238.5T700 1248L805 1252Q866 1253 895 1249L956 1236Q1009 1224 1012 1210T1003.5 1176T957 1155L749 1149L631 1137Q536 1123 482 1115.5T377.5 1097.5T304.5 1059.5T283 979L276 743Q277 646 275.5 587.5T266.5 492.5T247.5 421T223.5 372T201 359Q189 359 179 389T159.5 466.5T148.5 552T166 697.5T186 836L197 1160V1160z" />
    <glyph glyph-name="G"
      unicode="&#x47;"
      horiz-adv-x="1368" d=" M1114 917Q1112 958 1104 974.5T1080 1003T1012 1007Q974 1000 926.5 987T860 976Q830 977 788.5 1006.5T751 1058Q752 1067 765 1083.5T815.5 1102.5T934 1114T1070 1124Q1146 1124 1221 1110T1301.5 1076.5T1287 1019Q1262 973 1255 955.5T1242.5 907.5T1229.5 782T1223 664L1226 483Q1218 445 1189.5 399.5T1142 355.5T1091 400.5T1060 468L1086 542Q1087 546 1093 620L1098 714Q1043 647 1003.5 603T906.5 513.5T770.5 439T623 406Q539 401 454 426T300.5 496T174.5 625T94 792T63.5 961.5T58 1121Q62 1222 84.5 1308T145 1471.5T242 1608T360.5 1702T492.5 1758.5T654 1784Q712 1786 773.5 1779.5T897 1756T994 1721T1093.5 1663.5T1165 1601.5T1151 1545Q1140 1529 1108 1499T1049 1455.5T1009 1449Q998 1453 984 1497.5T936 1579T852 1640T732 1671Q651 1678 565 1657.5T416.5 1588.5T308.5 1464.5T235 1290.5T206.5 1059T231 836Q249 767 288 699T390 584T564 530Q679 521 775.5 563T940.5 665.5T1048.5 780.5T1094 855L1114 917V917z" />
    <glyph glyph-name="H"
      unicode="&#x48;"
      horiz-adv-x="1162" d=" M915 1588Q907 1669 903 1709L898 1748Q895 1771 902 1784T948 1795L1041 1767Q1081 1757 1088.5 1747.5T1096 1719L1087 1670L1069 1565Q1052 1430 1052 1416L1040 1060V843Q1041 729 1047 650T1053.5 534T1043 447Q1037 420 1020 382T982 345Q962 345 943.5 378T916 461.5T907 554L915 668L917 773L920 1001Q922 1058 919 1097.5T899.5 1153.5T818 1169Q747 1166 667.5 1163T540 1155T379.5 1136.5T230 1111T181 1082.5T165 1023T157 899.5T152.5 708.5T151 567L143 442Q141 408 132 377.5T108 346.5T76 382Q63 407 56 459.5T49 532T58 627Q63 673 68 771.5T74 923.5T76 1220Q76 1413 69.5 1521.5T64 1669.5T60 1744.5T64 1786.5T98 1792Q134 1789 163 1778.5T201 1754.5T201 1693Q192 1652 185 1574.5T174.5 1413.5T167 1285.5T175.5 1231.5T246 1235Q273 1240 351 1248L466 1260L596 1267Q776 1278 820 1274T882 1274Q895 1277 908.5 1286.5T922 1361L923 1447L915 1588V1588z" />
    <glyph glyph-name="I"
      unicode="&#x49;"
      horiz-adv-x="330" d=" M161 1781L213 1764L260 1746L268 1716L260 1663L249 1593L235 1421L224 1150V875Q220 734 226.5 645T233.5 523.5T223 440Q216 410 202 375.5T169.5 336.5T122 398Q109 425 100 469.5T91 562L98 677L105 840V1063V1314L94 1566L75 1715L70 1753L72 1781L110 1792L161 1781V1781z" />
    <glyph glyph-name="J"
      unicode="&#x4A;"
      horiz-adv-x="1055" d=" M282 1604L194 1584Q148 1571 119.5 1563T81.5 1559.5T59.5 1618.5T53 1682.5T100 1702L184 1722L403 1754L598 1767H789Q804 1767 887.5 1756T984 1726.5T994 1692Q990 1678 973.5 1666.5T946 1655H822Q714 1655 696 1645.5T667 1603Q659 1582 661 1551T661 1380L652 796Q648 568 646 541T631.5 480.5T590 423.5T512 389.5T414 385Q355 391 300 416T202 474T129 543.5T86.5 609T81.5 643T110 640Q126 633 161.5 602.5T240.5 548.5T326.5 511T412 503Q459 508 487.5 537.5T517 637L522 1251L521 1358V1497Q520 1576 497 1599Q464 1629 402 1619L282 1604V1604z" />
    <glyph glyph-name="K"
      unicode="&#x4B;"
      horiz-adv-x="1318" d=" M587 965Q553 1027 525 1091T487 1173.5T461.5 1195T414 1176Q371 1146 358 1137L287 1086Q237 1050 220.5 1024T202 913L197 719Q198 630 196.5 584T190 476T170.5 382.5T139 350.5T99 390Q77 426 65 473T56 575Q57 598 70 667.5T93.5 843T101 1160L96 1500Q95 1538 86 1630.5T70 1756T70 1796T99 1805Q127 1806 159 1800T218.5 1780T252 1751T245 1691Q235 1659 225 1570T215 1457L210 1248L206 1184Q207 1154 217 1149T257 1165Q292 1189 314 1205.5T428 1306.5T538 1410L661 1536L767 1651Q812 1715 836.5 1752.5T878 1793.5T922.5 1780T987 1710T1017 1653L973 1615L923 1583L807 1489L681 1393L587 1315Q543 1279 540 1259T560 1200L620 1095L698 983L789 860L884 746Q944 671 975.5 640.5T1058 571L1149 500Q1188 468 1222 434.5T1253 389T1204.5 379T1088.5 388.5T980.5 412T927 461L872 552L800 640L705 765L636 880z" />
    <glyph glyph-name="L"
      unicode="&#x4C;"
      horiz-adv-x="1245" d=" M409 547L846 560Q928 562 996 554T1113 535.5T1172 508T1178 472Q1174 455 1159 442.5T1117 431L925 437Q724 437 622 436T439 432.5T324 425T254 412.5T184.5 387.5T142 371Q114 373 98.5 406T81.5 466T86 548Q97 663 98 710L102 868L101 1051Q100 1256 98 1289L74 1632Q69 1703 60.5 1740.5T58.5 1785.5T80 1796Q94 1798 137.5 1787T203.5 1771.5T235.5 1754.5T243 1726L236 1636L225 1461Q213 1242 212 1203L201 895Q198 805 196 754T191 664T193.5 598.5T217.5 557T335 544L409 547V547z" />
    <glyph glyph-name="M"
      unicode="&#x4D;"
      horiz-adv-x="1403" d=" M1186 1525Q1160 1449 1144 1406T1088 1267.5T1028 1120L958 944L899 806L851 689Q825 626 795 560T751.5 457.5T720.5 405.5T680 393Q658 395 645 411.5T622.5 456T597.5 522T567 602L521 723L437 939Q384 1074 374 1101L302 1275L186 1568Q169 1256 168 1204L154 724Q151 618 149.5 555T145 450.5T126.5 378T97.5 346.5T72.5 378T59.5 453T60 548Q61 572 66 632.5T81 822T91 1031V1377L79 1634Q71 1675 70 1699T64 1749.5T64.5 1781.5T87 1789Q103 1790 145 1780T206 1761T230 1743Q232 1738 229.5 1713.5T241 1654Q250 1628 297.5 1534T364 1400T441.5 1232.5T518.5 1063T578 922T643.5 769.5T686 667T720 622Q730 624 746 647T777.5 707T838 848.5T912 1023.5T988.5 1215T1081 1444T1133 1572L1170 1680Q1169 1707 1161 1736.5T1159.5 1775T1191 1786Q1207 1787 1262 1770.5T1328.5 1742.5T1344 1716L1337 1653L1325 1560L1313 1416L1301 1140L1297 871Q1298 764 1302 674T1305 548Q1303 513 1297.5 460.5T1275 369T1238 333Q1221 334 1206.5 372T1183.5 457T1175 548Q1174 553 1182 662L1191 783L1195 1002Q1191 1266 1190 1338L1186 1525V1525z" />
    <glyph glyph-name="N"
      unicode="&#x4E;"
      horiz-adv-x="1307" d=" M1187 908Q1184 753 1183.5 680.5T1181 553.5T1171.5 460.5T1149.5 390.5T1118 355T1076 374Q1057 389 1034.5 429T974.5 531T897.5 648.5T799.5 779.5T589 1057L443 1249L316 1418Q289 1453 246 1506T194 1556Q185 1552 186 1492L182 1409L177 1222Q173 1019 174 967V806Q173 705 176 623T179 534Q178 495 174 458T155.5 389.5T127 359Q113 359 101 381T82 439.5T76 527Q76 534 79 584T85 740L93 966L94 1167L91 1454L75 1646Q63 1713 57.5 1746.5T57 1788.5T110.5 1789.5T195 1769.5T226 1744L218 1709Q287 1626 368 1531T483 1395L752 1061L937 833L1016 731L1072 664V723V782L1071 1045Q1076 1343 1071 1434L1063 1599Q1057 1675 1050 1710L1035 1775Q1031 1796 1037.5 1803.5T1072 1807Q1078 1805 1141 1786T1219 1755.5T1237.5 1733T1226 1677Q1218 1655 1215 1595L1202 1473L1195 1313L1187 1104V908z" />
    <glyph glyph-name="O"
      unicode="&#x4F;"
      horiz-adv-x="1229" d=" M643 1782Q727 1779 803.5 1751.5T942 1670.5T1047.5 1554T1119 1425T1160 1279T1171 1104Q1168 1003 1151 913.5T1103.5 749.5T1023.5 606.5T922.5 497T807.5 425.5T685 383Q586 362 501.5 383.5T355 444T249 531.5T171 640T111.5 774T73.5 927.5T63 1086Q64 1148 77 1227T109 1366.5T162.5 1496T251 1621T360.5 1712T490.5 1765.5T643 1782zM158 1095Q158 1015 175.5 915.5T224.5 743.5T295.5 623T396 534T526 482Q604 469 673 494.5T799.5 563T900 670.5T969.5 819.5T1010 1004.5T1019 1199Q1014 1287 992.5 1361.5T930 1509T839 1622T726 1685T605 1709Q549 1709 485 1688T374.5 1633T291 1551T226 1442.5T177.5 1286T158 1095z" />
    <glyph glyph-name="P"
      unicode="&#x50;"
      horiz-adv-x="1209" d=" M134 872L144 1133Q149 1287 151 1354L152 1431Q153 1510 139 1544Q124 1577 94.5 1600T54.5 1642T66.5 1694T131 1738Q158 1744 213.5 1743.5T405 1751L563 1757Q696 1762 736 1761Q824 1757 892 1733T1016 1663T1103 1567T1144 1450.5T1141 1315Q1118 1200 1054 1126T904.5 1016.5T704 968.5T496 955Q398 953 322.5 969.5T237 973T227 923Q226 897 226.5 832T227 721Q226 595 222.5 535T212 437T186 374T154 350Q139 351 126 391T109 465.5T108 543Q109 565 115.5 627T126 737.5T134 872zM238 1086Q242 1079 294 1063T491 1058Q664 1070 728 1079T858 1127.5T962.5 1239.5T1000 1386Q998 1456 964.5 1508T873 1589.5T745.5 1626T579 1627Q468 1619 385 1604.5T280 1568.5T248.5 1520T237 1441L233 1319Q228 1198 231.5 1143.5T238 1086z" />
    <glyph glyph-name="Q"
      unicode="&#x51;"
      horiz-adv-x="1314" d=" M569 1784Q600 1787 667.5 1781.5T793 1762.5T918.5 1714.5T1056.5 1612.5T1175 1441T1233 1226T1232 983Q1223 883 1207.5 826.5T1153.5 685T1071 552T1031 494T1079 480Q1133 474 1171.5 483T1223.5 493.5T1244 487T1236 454Q1226 438 1194 419.5T1131.5 388.5T1058 374Q1010 371 965 390.5T917 411Q900 412 847.5 391T723 363T591 362Q507 369 441.5 398T310 481T205.5 588T140 703T93.5 834T67.5 966T63 1109Q66 1234 91.5 1350T174 1545T305.5 1677T454 1754.5T569 1784zM548 489Q571 481 602 473T694 469Q759 472 799 496T843 542T823 603Q789 655 746.5 686T656 717Q597 716 564 677T528 590Q525 557 532 540L548 489V489zM485 497Q459 578 460.5 623.5T484.5 709.5T545.5 774.5T631 807Q683 815 741 800T842.5 750T917 671L960 610Q993 650 1011.5 680T1050.5 780T1080.5 924.5T1088 1087Q1085 1192 1069 1280.5T1026 1434T942 1565.5T794.5 1670T596 1703Q506 1698 422.5 1660T288.5 1553.5T214.5 1418.5T177 1267.5T168 1071Q172 971 191 884T241 734T322.5 617T414 540L485 497V497z" />
    <glyph glyph-name="R"
      unicode="&#x52;"
      horiz-adv-x="1379" d=" M755 981L846 858L941 744Q1001 669 1031.5 640T1117.5 566.5T1221.5 488T1291.5 426.5T1310 386.5T1253 377T1138.5 387T1039 411T985 459L930 550L857 638L762 764L693 878L645 963Q630 997 617.5 1006T583.5 1018.5T511 1019Q337 1005 311.5 1001.5T270.5 982T252.5 939T254 825L264 552Q265 524 258.5 469.5T237 382.5T206 352Q193 353 179.5 385T159.5 444T150 513.5T153.5 668T162 907L165 1235V1289Q165 1325 164 1383T167.5 1491.5T158 1565Q141 1590 119 1592H91Q74 1596 64 1622T57 1679Q62 1721 80.5 1737T154 1758L241 1766Q324 1773 427 1774L653 1772Q771 1770 842 1759T974.5 1709.5T1072 1619T1121.5 1496T1117 1351Q1098 1275 1056 1220T969 1130T856 1066L759 1027Q730 1015 735 1011L755 981V981zM357 1102L504 1114Q574 1122 653 1138.5T794.5 1180.5T904.5 1256.5T966.5 1386.5T949 1529Q918 1587 860.5 1616T728 1652Q659 1657 574 1648.5T423 1628.5T322 1597.5T271.5 1552T254 1494.5T248.5 1344.5T246 1215L247 1169Q246 1125 255.5 1108.5T357 1102z" />
    <glyph glyph-name="S"
      unicode="&#x53;"
      horiz-adv-x="1190" d=" M481 1226L719 1143Q774 1123 875.5 1085T1025.5 1009T1101.5 917.5T1126 775Q1122 689 1094.5 631.5T1014 520.5T883 430.5T728.5 380.5T578 369Q474 371 385.5 396.5T237 459.5T130.5 543.5T68.5 623.5T62.5 668.5T113 664Q138 653 184.5 613T285.5 543.5T424 493.5T585 475Q667 476 743 503.5T866.5 578.5T936 681T952 787Q944 846 901.5 892.5T758 981L501 1076Q395 1115 321.5 1153T206.5 1231.5T144 1342.5T146 1498Q155 1534 176 1572.5T240.5 1652.5T334 1719.5T448.5 1759.5T589 1775Q649 1775 706.5 1767.5T819 1744T907.5 1711.5T1008 1657T1077.5 1600.5T1062 1551Q1033 1501 991 1464T932 1435Q922 1439 905 1480T852 1560.5T763.5 1624.5T647 1656Q581 1662 520 1649.5T409.5 1609.5T328.5 1540T290.5 1456.5T303 1371Q323 1322 368.5 1285.5T481 1226z" />
    <glyph glyph-name="T"
      unicode="&#x54;"
      horiz-adv-x="1279" d=" M684 1544L663 1362Q659 1113 656 1050L647 851Q650 735 655 657.5T660.5 538T650 452Q642 424 625 390T594 354T558 398Q543 425 535 468.5T527 564L534 679L542 802L541 994Q538 1209 538 1254L534 1497Q541 1589 518 1607T471 1626T367 1619L281 1609L192 1598Q178 1596 131.5 1586.5T75 1582T57.5 1647.5T56 1716Q65 1726 105 1732L191 1744L472 1766L854 1765L1044 1748Q1055 1746 1126 1728T1207 1693T1214.5 1657T1197.5 1626.5T1170 1617L1049 1629L1000 1634Q860 1648 786.5 1640T711 1619L684 1544V1544z" />
    <glyph glyph-name="U"
      unicode="&#x55;"
      horiz-adv-x="1186" d=" M185 1434Q179 1233 173.5 1115.5T169 952Q169 897 175 824T195.5 690T239.5 586T332.5 513.5T485 478Q552 473 618 481T735.5 511.5T830 572T897 664.5T930.5 832T942 1134V1306L938 1549Q932 1634 926.5 1668T914.5 1733T917 1778T938 1787L991 1774Q1040 1766 1077.5 1754T1118 1729.5T1116 1687L1097 1576L1080 1406L1064 1118L1053 829Q1046 727 1030.5 666T979.5 554T895 464.5T776.5 400.5T627 370.5T471 378T342.5 410.5T249 465T182 542T138.5 645.5T114.5 781T103 959T97 1102L93 1326L88 1554Q84 1640 79 1671T65 1738T62.5 1781T86 1790Q104 1791 144.5 1778.5T197.5 1759.5T218 1739Q219 1736 214 1675L199 1569z" />
    <glyph glyph-name="V"
      unicode="&#x56;"
      horiz-adv-x="1383" d=" M842 849L894 1007Q949 1179 959 1213L1022 1430L1078 1628Q1094 1687 1100 1730.5T1117.5 1782.5T1174 1790L1257 1787Q1315 1778 1319 1760T1309 1715L1277 1659L1228 1543Q1205 1483 1194 1454L1141 1317L1060 1094L984 888Q940 769 907.5 687.5T837 534.5T754 410T683.5 359.5T621.5 419T546.5 556T486 689T400 907.5T329 1094L243 1341L155 1568Q123 1645 107 1679L72 1747Q59 1774 63.5 1780.5T84.5 1789T142 1790Q184 1788 197 1776.5T214 1739L232 1640L275 1497Q323 1331 347.5 1255T412 1066.5T482 870.5T534 734L587 608Q609 549 631 507T676 464.5T737 555.5T787 683L842 849V849z" />
    <glyph glyph-name="W"
      unicode="&#x57;"
      horiz-adv-x="1837" d=" M953 1597Q969 1509 979 1466L1042 1201Q1044 1190 1082 1018T1144.5 742T1178.5 590.5T1198.5 515.5T1216.5 485.5T1240 529L1295 688Q1320 762 1382.5 961T1463 1225L1517 1419L1565 1605Q1578 1667 1581 1709T1594 1760.5T1619.5 1774.5T1673.5 1782.5T1738.5 1781.5T1771.5 1766.5T1755 1696L1726 1629Q1692 1531 1676 1482L1611 1289Q1579 1197 1548 1107L1469 885Q1418 742 1388.5 665.5T1326 519.5T1261.5 403.5T1211.5 356.5T1168 410.5T1108.5 591T1068 742L1018 957L963 1177L913 1387Q879 1239 864 1166L817 945Q784 797 763.5 726.5T709 549T645.5 400T590 359.5T537 404.5T483.5 516.5T430.5 663.5T366 870L293 1115L221 1356Q180 1491 172 1518L142 1609Q125 1644 115 1660L71 1722Q52 1753 59 1767T90 1782T161.5 1773.5T221.5 1753T239 1727L241 1684L252 1613Q272 1520 290.5 1439T334 1265L405 1004L462 791Q481 721 496 679L541 557Q557 506 566 485T584.5 461T611 513Q633 586 653.5 688.5T687.5 868T733 1155.5T775.5 1440.5T793 1591.5T797.5 1720T807.5 1784.5T876 1783Q914 1773 944 1759T981 1732Q981 1730 971 1672L953 1597V1597z" />
    <glyph glyph-name="X"
      unicode="&#x58;"
      horiz-adv-x="1390" d=" M656 1025Q615 966 596 938.5T528.5 843.5T434 715T366 621.5T339 557L332 509Q325 489 297 464T247.5 426.5T171 388T93.5 359T65.5 362T69 392Q76 410 106 448L160 526Q176 549 217.5 597.5T302 695T349 749L413 831L480 925L520 981L597 1096Q544 1172 478.5 1268T404 1377L282 1544Q216 1623 191 1651.5T156 1692.5T145.5 1720.5T171 1744L219 1763Q253 1771 280.5 1778.5T320 1780.5T342 1760L362 1717L393 1650L467 1515Q553 1381 573 1355L682 1208Q740 1292 747 1304L870 1498L964 1650Q984 1693 995 1723.5T1015.5 1768T1033.5 1785.5T1087 1777L1169 1751Q1185 1739 1186 1731T1176 1711L1142 1684L1056 1586Q980 1478 917.5 1387.5T809 1237.5T755 1165L737 1135Q806 1040 825 1015T942 861T1068.5 696.5T1161.5 583T1264.5 465T1315.5 398.5T1323.5 359.5T1254 362L1154 381Q1110 391 1078 409.5T1039 442.5T1020.5 505T985 589.5T906 705L815 835Q752 921 719 957L656 1025V1025z" />
    <glyph glyph-name="Y"
      unicode="&#x59;"
      horiz-adv-x="1197" d=" M889 1656Q917 1701 931.5 1734.5T953.5 1779.5T973 1795Q977 1796 1010 1789L1063 1775Q1105 1757 1119.5 1741T1134.5 1713T1098 1660L1047 1608Q978 1526 935.5 1475.5T827.5 1343T725 1209T671 1116T655 1047L651 880Q648 738 654 649.5T660 549Q659 505 653 467T631 386T591.5 341.5T541 403Q528 430 519 475.5T510 569L517 684L521 857Q520 936 520.5 995.5T513 1088T487 1156.5T445 1230T355.5 1355.5T283 1454L213 1552L127 1656Q102 1682 72.5 1712T53 1747L92 1774Q113 1782 130 1788T158 1790.5T181 1768L205 1715L240 1656L304 1561Q353 1490 391.5 1433T474.5 1316T542 1221.5T585.5 1185.5T637 1236.5T724.5 1379T816 1530L889 1656V1656z" />
    <glyph glyph-name="Z"
      unicode="&#x5A;"
      horiz-adv-x="1191" d=" M381 939Q461 1056 545.5 1178.5T658 1342T711 1424L795 1565Q833 1626 823 1642.5T771 1666.5T653 1671Q516 1664 478 1660L281 1632Q190 1622 147 1608T91 1604Q81 1610 72 1631.5T56.5 1678.5T58 1716T110 1734L226 1747L445 1760L708 1763Q768 1757 813.5 1752T897.5 1737.5T981.5 1706T1032.5 1663.5T996 1583.5T918 1478L791 1315Q678 1158 657 1129L510 924Q437 825 411 787.5T347 691.5T288 593.5T277 538T332 524H384L583 540L814 544H944Q988 544 1034 533.5T1099.5 514T1130.5 487.5T1117 457.5T1064 445L874 441Q794 439 649 434T429.5 423T274.5 404T154 400T98.5 438T107 524Q119 553 155 607L246 746L381 939V939z" />
    <glyph glyph-name="a"
      unicode="&#x61;"
      horiz-adv-x="1008" d=" M897 1053L878 722L894 560Q893 529 884.5 488.5T858 415T825 381.5T789 421Q764 468 763 496L757 570Q721 526 690.5 495T604.5 431T483 388Q420 377 361.5 390.5T252 436T159.5 522.5T92.5 658T62.5 821T69 982Q83 1077 119.5 1155.5T215.5 1295T340 1388T487 1427Q553 1432 618.5 1415.5T710 1377L777 1323Q773 1366 771.5 1395T778.5 1430.5T809 1434Q816 1432 863 1415T925 1388.5T942.5 1366T934 1323Q925 1301 920 1275T908 1189T897 1053zM774 1104Q771 1149 748 1198T658.5 1284T519 1323Q460 1324 399.5 1301.5T281.5 1227.5T192 1110.5T146 972T140 813Q147 731 173.5 671T246 568T353 509Q430 487 506 508.5T633 564.5T711 638T750.5 717T767 833L770 991L774 1104V1104z" />
    <glyph glyph-name="b"
      unicode="&#x62;"
      horiz-adv-x="1066" d=" M183 1220Q268 1305 325 1348.5T440.5 1412.5T571 1437Q655 1441 722 1420T858 1341T967 1184.5T1009 978.5T986 776Q958 673 908 601T786 476T638 403T486 388Q418 391 365.5 409T278 449L183 504Q176 469 171 437T152 380T124 354.5T94 394Q81 422 77.5 455T76 535Q77 578 85 659L93 743L97 966Q99 1279 93 1370L81 1563Q71 1665 64 1702T57 1761T69.5 1790.5T106 1792L168 1767Q209 1755 216.5 1746T224 1713L216 1667L203 1595L189 1438zM181 1054Q182 929 179.5 836T179 714Q182 642 204.5 603T308.5 523.5T490 482Q595 480 671 525.5T799.5 668.5T864 888.5T849 1113Q821 1216 761 1273T614 1342Q558 1349 500 1333.5T396 1287T298.5 1206.5T233 1133L181 1054V1054z" />
    <glyph glyph-name="c"
      unicode="&#x63;"
      horiz-adv-x="994" d=" M913 792Q919 788 925 754.5T914 667Q892 601 860 550T778.5 459T656 392T508 363Q408 359 326.5 394T189 486.5T99 622.5T58 776.5T53 921Q56 998 72 1072T134.5 1225.5T235.5 1349T355.5 1415T495 1441Q560 1444 631 1430T746.5 1388T858.5 1308T926 1234Q925 1213 904.5 1193.5T851.5 1152.5T791 1118.5T748 1117Q738 1123 730.5 1179T683 1273.5T598.5 1324.5T511 1335Q439 1331 380.5 1297.5T283 1200T225 1067.5T200.5 884.5T230 671Q263 576 330 521T505 465Q571 463 634.5 488T742 553T814 637.5T855.5 724.5T885 782T913 792z" />
    <glyph glyph-name="d"
      unicode="&#x64;"
      horiz-adv-x="1054" d=" M817 1291L810 1451L797 1577Q789 1624 785 1663.5T769 1740.5T765.5 1788T805 1799Q831 1799 892.5 1780T969.5 1747.5T990 1720Q991 1714 983 1657L967 1574Q950 1403 951 1383L946 979L950 756Q955 699 961 636T965 528Q963 497 955 455.5T920.5 376T873 341.5T835 404Q820 452 822 469L826 579Q784 522 753.5 489T669.5 422.5T536 379Q422 364 331.5 404T186.5 497.5T93 648T54 877Q54 1042 109 1157T232 1336.5T368 1421.5T504 1442Q603 1441 676.5 1408.5T769 1351L817 1291V1291zM832 884V1023Q824 1084 812.5 1124T768 1207T673.5 1287T532 1335Q452 1345 383 1322.5T253.5 1242.5T164 1116.5T123 945.5T133 758Q155 669 205.5 611.5T324.5 521.5T477 489Q577 488 652.5 530.5T765.5 631.5T812 758L832 884V884z" />
    <glyph glyph-name="e"
      unicode="&#x65;"
      horiz-adv-x="1061" d=" M528 1437Q653 1437 729.5 1398.5T852.5 1310.5T930 1189T975 1072T994.5 994.5T991 945Q976 917 941.5 911.5T859 906L726 901L609 902Q592 901 510 899T349 897Q281 896 230.5 898T166 888T157 820Q162 754 178 694T233 589T344.5 512.5T522 476Q593 471 645 481.5T739.5 512.5T825 567.5T897.5 654T949.5 717.5T981 722.5T985 689Q980 665 952 613T896.5 530T824.5 464T751.5 415T647 386T521 371Q438 370 348.5 402.5T206 477T122.5 582T77.5 711.5T58.5 841.5T61 970Q66 1013 82 1073T133 1191.5T218 1303T314 1383T431.5 1423T528 1437zM181 1053Q168 1009 178 994T245 978Q287 977 339.5 978.5T516.5 983T679.5 986.5T757.5 989T812 1011.5T802 1101Q771 1182 726 1240.5T596.5 1329.5T424 1335Q363 1317 325 1284T253.5 1203.5T203.5 1116T181 1053z" />
    <glyph glyph-name="f"
      unicode="&#x66;"
      horiz-adv-x="1014" d=" M805 1368Q840 1357 879 1346T919.5 1318T909.5 1289.5T859.5 1274.5T786 1272Q755 1272 696 1276.5T606 1280Q561 1278 545.5 1263.5T526.5 1204T524 1114L528 950L529 805Q530 719 538.5 636.5T546 524Q543 485 532 440.5T505.5 372.5T469.5 345T424 409Q412 437 405.5 487T401 612L411 825L407 1007Q406 1053 408 1145.5T384 1257T274 1268Q218 1262 176 1254.5T101.5 1248T64 1265T76 1307Q88 1325 121.5 1347T266.5 1364T397 1383Q409 1399 412 1450L416 1542Q418 1589 426.5 1636.5T459 1713T521.5 1757.5T603 1782T690 1792Q752 1793 798.5 1777.5T877.5 1733.5T923 1668L934 1626Q949 1582 945 1562.5T925.5 1541T895 1555L852 1624Q835 1648 810 1662T749.5 1681.5T677 1686Q635 1684 602.5 1669T555.5 1626.5T536 1564L528 1493Q522 1451 522.5 1420.5T539 1377.5T602 1367H693Q801 1368 805 1368z" />
    <glyph glyph-name="g"
      unicode="&#x67;"
      horiz-adv-x="1035" d=" M946 1183L938 620Q936 527 922.5 446.5T889.5 315.5T837 218.5T766.5 141.5T656.5 83.5T503 46Q412 34 337.5 49.5T210.5 101T135.5 174.5T97 259.5T82.5 341.5T95.5 376.5T121 363Q132 351 153.5 301T220.5 210.5T326.5 151.5T475 145Q542 154 602.5 178.5T705 240.5T771 330T806 436.5T819 555L821 637Q790 593 761 560.5T656 487.5T471 443Q381 439 311.5 466T193 538T114 639.5T70 766T57 935Q58 1029 72.5 1091T112 1205.5T166.5 1295T238 1364T341.5 1420T475 1448Q536 1451 608 1434T708 1392L793 1323Q781 1379 786.5 1409.5T805 1448T847 1454Q893 1449 928 1435.5T967.5 1409.5T965 1365Q957 1333 954 1288L946 1183V1183zM473 551Q535 553 593.5 575T696 632T762 704T790.5 781.5T799 860L805 1036Q810 1121 803 1152Q790 1204 742.5 1251T626.5 1317.5T475 1336Q402 1334 345 1314.5T239.5 1245.5T156.5 1118T124 908Q125 812 148 752T214 644.5T326 572T473 551z" />
    <glyph glyph-name="h"
      unicode="&#x68;"
      horiz-adv-x="1000" d=" M172 1232Q222 1291 261 1328T358 1395.5T485 1436T623 1437Q694 1426 758.5 1392.5T857 1304T908 1174T927 994L932 703Q934 549 931 507T920.5 439.5T896 382.5T862.5 349T821 398Q799 441 793 489T789 610L797 797Q800 889 797 978Q793 1058 782.5 1133.5T744 1251T677 1314.5T585 1342Q519 1348 464.5 1331.5T348 1273.5T251 1189T199.5 1103T172.5 1008T163 917L160 743Q161 654 160 609L152 483Q149 426 134.5 391.5T105 359Q91 359 77.5 390.5T60.5 480T57 567T61 647L73 773Q76 812 81 947L89 1157V1464L81 1650Q73 1705 63.5 1743.5T63 1794.5T121 1796Q146 1790 183.5 1771T225.5 1738.5T215 1685Q199 1644 193 1558L181 1416L172 1232V1232z" />
    <glyph glyph-name="i"
      unicode="&#x69;"
      horiz-adv-x="451" d=" M223 1618L183 1668L140 1727L115 1774L124 1792L154 1801L198 1796L280 1779L329 1740L369 1655L371 1606L356 1572L322 1560L289 1567L223 1618V1618zM260 1438L317 1420L368 1402L377 1370L376 1356L356 1242L337 1075L327 846Q324 761 327 720L335 571Q333 525 324 479T299 393T268 352T232 405Q219 436 210 483T201 579Q200 585 208 698L217 825Q218 1000 216 1042L209 1205L188 1361L182 1400L199 1442L238 1445L260 1438V1438z" />
    <glyph glyph-name="j"
      unicode="&#x6A;"
      horiz-adv-x="449" d=" M331 575Q325 517 320 462.5T299.5 354.5T247.5 252T163 167.5T39.5 111T-120 101Q-203 111 -249 143.5T-322.5 217.5T-364.5 301T-379 391.5T-368.5 440.5T-344 426Q-331 410 -309.5 354T-244.5 258T-146 204Q-75 185 1 209.5T126.5 284T192 392T212 515.5T219 665Q226 921 219 1069L211 1255L195 1406L190 1445L206 1485L241 1489L326 1464L372 1446L389 1417L374 1349L361 1291L346 1128Q335 839 334 756L331 575V575zM235 1662L195 1712L152 1771L126 1818L135 1836L166 1845L209 1840L292 1823L341 1784L381 1699L383 1650L368 1616L333 1604L301 1611L235 1662V1662z" />
    <glyph glyph-name="k"
      unicode="&#x6B;"
      horiz-adv-x="1105" d=" M419 1049L467 987L562 864L669 743Q729 668 760 638T842 569L934 498Q976 464 1008.5 431T1037.5 386T976.5 376T860 388T774 416T721 476L690 524L597 641L502 767L433 881L349 1007Q285 964 273 955L204 904L195 735Q196 645 194.5 594.5T188 488.5T178.5 407.5T164 366T141 345.5T101 387Q78 422 65.5 460T53 544.5T67.5 676T91.5 858T99 1176L95 1493L88 1600Q83 1678 73.5 1722T74.5 1778T96 1793.5T129 1794Q175 1786 208.5 1771T249 1738T237 1655Q230 1633 221.5 1543.5T213 1449L201 978Q292 1047 352.5 1094T469.5 1186T568.5 1269.5T638.5 1337.5T683.5 1404.5T713 1446Q724 1449 755 1438T829 1400.5T869 1354Q865 1337 850 1328L806 1298L736 1255Q659 1205 588 1160T510 1110L419 1049V1049z" />
    <glyph glyph-name="l"
      unicode="&#x6C;"
      horiz-adv-x="360" d=" M266 1592L247 1431L234 1255L226 1071V850Q228 737 234 661T240 562Q239 511 230.5 465.5T204.5 385T168 353Q151 354 136.5 392.5T114 477T106 570L113 684L120 812L125 1095L121 1320L117 1561L104 1654L89 1725L85 1784L120 1792L215 1772L274 1744L286 1717L278 1662L266 1592V1592z" />
    <glyph glyph-name="m"
      unicode="&#x6D;"
      horiz-adv-x="1360" d=" M737 987V739Q737 568 732.5 514T705 405T659 356Q643 359 626.5 395.5T604 470T599 545Q599 570 605.5 639T617 801.5T621 976Q619 1075 607.5 1142.5T577.5 1246.5T528 1304.5T444 1331Q391 1335 359.5 1322.5T297.5 1285T238 1223T194 1147.5T176 1060T175 950L180 663Q180 611 173 546.5T149 426T118 371Q103 371 89.5 419.5T70 524.5T66 616Q67 632 76 680.5T89 771.5T95.5 938.5T97 1110Q94 1185 84 1272.5T67 1393T65.5 1432.5T89 1442Q123 1446 155.5 1437.5T198 1414Q199 1411 194 1351L182 1268Q225 1320 252.5 1347.5T318 1399.5T410 1434.5T539 1425.5T648 1359L694 1300Q733 1349 764 1378.5T840 1428T957 1450Q1034 1451 1094 1430.5T1196.5 1373T1263 1281T1294.5 1140T1299 937L1292 687L1291 580Q1289 529 1282.5 484T1257.5 401.5T1221.5 363.5T1183 407Q1170 431 1162.5 467.5T1156 548Q1156 556 1163.5 629.5T1174 817T1177 978Q1176 1058 1170 1131T1142 1253T1084 1323.5T1003 1351Q951 1356 909.5 1343.5T836.5 1301T784.5 1229T750.5 1120T737 987z" />
    <glyph glyph-name="n"
      unicode="&#x6E;"
      horiz-adv-x="990" d=" M194 1229Q249 1294 283.5 1327T360.5 1386T446.5 1422T546 1434Q613 1435 657.5 1426T748.5 1392T828 1326T881 1219T909 1061.5T920.5 833T925.5 625T926 509Q924 441 900 403T851 368Q832 369 815 394T783 468.5T766 535T776 631Q780 663 783 742.5T786.5 891.5T784 1024Q777 1132 752.5 1195.5T692 1291.5T608.5 1339T491 1339Q428 1325 371.5 1291T276.5 1221T219.5 1143.5T193 1064.5T182 980Q178 934 181.5 823T182 637Q178 559 171 502.5T146 397T111 352Q97 354 84.5 391.5T68 483.5T64 561Q64 574 75 645T91 819.5T96.5 977.5T97 1086Q95 1174 91.5 1244T75.5 1371T74.5 1436.5T119 1442Q150 1438 181.5 1425T222 1394Q226 1383 211.5 1307.5T194 1229z" />
    <glyph glyph-name="o"
      unicode="&#x6F;"
      horiz-adv-x="1050" d=" M604 1439Q684 1427 746 1398T867.5 1303T958.5 1160T995 984.5T987 802Q975 730 950.5 668T889 558.5T801 468T681 399T516 372Q436 370 381.5 387T283.5 436.5T196.5 517.5T130.5 610T87.5 725T60 860T62 996Q70 1059 95.5 1135.5T155.5 1263T240.5 1352.5T355 1414.5T483 1442T604 1439zM491 494Q550 489 612.5 511T723 584T799.5 704.5T838 847.5T842 996Q836 1062 815.5 1128.5T750 1255T645 1342T514 1369Q440 1368 371.5 1337.5T260.5 1251.5T194 1127.5T159.5 974T170 794Q188 710 234.5 640T356 534T491 494z" />
    <glyph glyph-name="p"
      unicode="&#x70;"
      horiz-adv-x="1108" d=" M133 1153Q135 1183 131.5 1206.5T113 1239L61 1251Q49 1258 46.5 1274T46 1315Q48 1346 57 1358.5T100 1383T199 1409.5T319.5 1432T480 1441Q567 1441 642.5 1432.5T782 1397T905 1304T995.5 1159T1037 1000T1039 847Q1030 771 1008.5 714.5T961 607.5T907 527.5T834 466.5T733 410T581 382Q502 378 437 397T318 456L227 519V416Q228 370 232.5 305.5T237 228Q236 203 228.5 150.5T208 63T181 29Q167 29 153 59.5T129.5 155.5T122 235L132 365L145 595Q139 894 137 985L133 1153V1153zM232 1066L227 706Q226 673 243 637T299 566T410.5 505.5T560 485Q638 489 694 521T791.5 601.5T859 721T891 883.5T884 1047Q866 1137 819.5 1196.5T706 1281.5T527 1307Q427 1306 365.5 1291.5T277.5 1252T242 1196.5T232 1066z" />
    <glyph glyph-name="q"
      unicode="&#x71;"
      horiz-adv-x="1126" d=" M947 588V473Q953 391 957.5 327T963 209.5T958 123Q952 89 934.5 57T898.5 23T858 58Q841 84 833.5 140.5T828 240L835 308L846 440L842 602Q815 554 795 528.5T721.5 460.5T607.5 399.5T482 383Q411 384 344.5 408T217.5 486T123.5 604.5T74 740T59 895Q60 966 76.5 1040T135 1190T242 1320.5T387.5 1405T559 1441Q630 1445 708.5 1435T842.5 1412T954.5 1382T1030 1346T1056.5 1279.5T1030 1224H986Q971 1219 961.5 1196.5T950 1119T946.5 980.5T946 844L947 588V588zM843 816L845 1043L843 1165Q842 1216 830 1238T752 1284.5T586 1307Q479 1304 382.5 1265.5T235.5 1159.5T163.5 1028.5T138 896T159 752Q184 672 237.5 611.5T364.5 518.5T523 492Q614 498 687.5 543.5T795 639T835.5 723.5T843 816z" />
    <glyph glyph-name="r"
      unicode="&#x72;"
      horiz-adv-x="946" d=" M211 931L219 698Q222 593 218.5 540T207 452T182.5 383.5T147 351Q130 351 109 397.5T78.5 484T68.5 558.5T78.5 680.5T93 908.5T94 1125Q91 1176 84.5 1260T67 1394T65 1451.5T117 1453Q199 1439 218.5 1428.5T245 1406Q251 1392 242 1354L235 1327Q277 1362 305.5 1381T376.5 1415.5T465 1436.5T568 1437Q619 1431 663 1417T751 1376.5T834 1321.5T877.5 1276.5T875 1242Q865 1217 832 1190T766 1147.5T717 1145Q708 1151 700 1198T663 1280T588 1332T481 1346Q412 1342 357 1319T273.5 1264T235.5 1199.5T217 1085.5T211 931z" />
    <glyph glyph-name="s"
      unicode="&#x73;"
      horiz-adv-x="1009" d=" M141 1163Q129 1220 145 1271T191.5 1354.5T290.5 1417.5T482 1444Q551 1441 631.5 1423T779 1378L894 1324Q939 1302 943.5 1285.5T931 1238Q921 1221 899 1192T853 1144T813 1129Q800 1131 777.5 1173T712.5 1252.5T598 1317.5T429 1332Q377 1325 336.5 1302.5T284 1244T301 1163Q322 1128 381.5 1093T499.5 1031.5T656.5 963T810.5 884.5T892 798T919.5 683T897 565Q859 483 758 429T499 373Q394 371 324 390.5T196 449T116.5 520T76 596T59.5 660.5T77.5 686.5T118 668Q126 659 154.5 613.5T236.5 530T366 475.5T528 472Q604 482 652.5 510.5T734 589T758 699Q747 761 699 798T585 865.5T424.5 935.5T270 1004.5T179 1077.5T141 1163z" />
    <glyph glyph-name="t"
      unicode="&#x74;"
      horiz-adv-x="980" d=" M403 1234Q319 1220 265 1206.5T186 1198Q160 1202 131 1221T74.5 1270.5T60 1306L95 1328L217 1341L400 1346Q404 1481 400 1531.5T388.5 1638.5T370.5 1734.5T370.5 1783.5T419 1788Q433 1785 476.5 1774T535.5 1754T558 1731.5T555 1674Q544 1631 541.5 1602T534 1488L525 1345L656 1335Q748 1328 793.5 1324T876 1308.5T913.5 1285T900.5 1255T853 1239L658 1249L519 1241L512 1041L507 775Q505 679 504.5 637.5T509 566Q515 523 536 497.5T615 467Q668 462 713.5 481.5T790.5 523T843 564L876 595Q905 622 914 616.5T917 580Q912 557 888.5 525.5T842 471T783.5 423.5T701.5 382.5T576 362Q502 357 462.5 377.5T409 431T393.5 506.5T391.5 609T392 705Q392 715 397.5 841T403 1013V1234V1234z" />
    <glyph glyph-name="u"
      unicode="&#x75;"
      horiz-adv-x="1033" d=" M790 815L796 1031L788 1245Q787 1334 772 1374T763.5 1423T785 1436Q799 1440 848 1428L929 1409Q965 1393 970.5 1374.5T962 1314Q952 1285 943 1234T928.5 1140T919 1036.5T916 933L920 813L924 687Q932 552 932 541Q930 491 921 459.5T896.5 401T868 375Q855 375 839 397.5T816 452.5T809 497L802 589Q762 536 734.5 502.5T672.5 440.5T581.5 388.5T448 366Q342 366 276 408.5T176 506T124.5 624.5T100 788T91.5 988T89 1122T79.5 1256.5T64.5 1392.5T64.5 1437.5T102 1444Q112 1442 147 1432T203.5 1412T229.5 1388T219 1331Q208 1303 200.5 1235T188 1097.5T181.5 970.5T182 842Q183 759 190.5 696T230 574T328 479T492 460Q555 470 614 504.5T710 582.5T767.5 687.5T790 815z" />
    <glyph glyph-name="v"
      unicode="&#x76;"
      horiz-adv-x="1201" d=" M724 782L870 1153Q904 1241 922 1298T944.5 1392.5T957.5 1438T1003 1437Q1051 1424 1089.5 1403.5T1133 1363T1123 1313Q1116 1300 1090.5 1261.5T993.5 1087T906 918L792 679Q780 656 727 556T641.5 410T576 359Q553 355 529 367.5T486 413T443 503L387 631Q345 727 300 849L234 1026Q196 1124 162.5 1204T109 1323L64 1402Q51 1425 55 1433.5T78 1446Q96 1449 137 1440.5T200 1422.5T231 1397T242 1337T259.5 1233.5T296 1106T348 951.5T429 737.5T511 527T565 449Q581 452 598.5 490.5T664 640T724 782z" />
    <glyph glyph-name="w"
      unicode="&#x77;"
      horiz-adv-x="1478" d=" M765 1303Q775 1243 784 1193.5T821 1009.5T867.5 781T895.5 647T920.5 556.5T947 503.5T982 574L1033 720L1084 878L1145 1063Q1170 1143 1191 1222L1219 1327Q1223 1368 1226.5 1393T1238 1426T1261.5 1437.5T1319 1441.5T1386 1440.5T1414 1432T1397 1380L1358 1307Q1334 1242 1316.5 1195T1255.5 1036T1207 911L1152 761Q1122 680 1098.5 624.5T1046.5 509T993 407T948 369T907 408.5T869.5 499.5T836 631L799 795L758 953L723 1104Q707 1005 699 956L660 760Q638 651 627.5 608T593 500T540 400T491.5 366.5T450.5 407T411 488T363 606T311.5 744.5T246 940L186 1121Q154 1217 146 1238L117 1312Q103 1339 95 1351L61 1397Q52 1415 56 1427T88 1443L145 1438Q196 1434 203 1427T214 1405L217 1376L228 1307L252 1211Q277 1117 297.5 1045T346 882L397 713Q424 619 450 552T489 490Q497 492 511 551L535 650Q544 690 562.5 797T592.5 980.5T609 1103.5T623 1243T628 1384T634.5 1437.5T668 1442Q729 1437 760 1426.5T796 1403Q798 1395 788 1365L765 1303V1303z" />
    <glyph glyph-name="x"
      unicode="&#x78;"
      horiz-adv-x="1024" d=" M537 1038Q598 1128 610 1146L687 1259L731 1331Q759 1371 769 1400T789.5 1437.5T810 1445L865 1441Q898 1441 912.5 1431.5T929 1410L899 1371L818 1281Q756 1204 727 1165L641 1047L587 975L681 844Q733 771 761 736L848 625Q889 572 915 532.5T952 461.5T962.5 399.5T950 356.5T897.5 370T829.5 421.5T785 469.5T737.5 541T679 631L586 764L511 860Q440 778 394.5 712.5T323 616T291 571L270 510Q259 487 228.5 457.5T163.5 400.5T94.5 359T55.5 353T56 376T78 415L125 490Q127 494 162.5 535T276 680L347 771L390 826L464 928Q406 1010 400 1018L204 1265Q147 1330 123 1351.5T90.5 1382.5T82.5 1405.5T109 1423L156 1434Q194 1444 221 1452.5T260.5 1456.5T283 1440L301 1402L330 1338L395 1231z" />
    <glyph glyph-name="y"
      unicode="&#x79;"
      horiz-adv-x="1138" d=" M550 679Q479 792 439.5 853.5T320.5 1035T221 1185L158 1276Q129 1316 113.5 1336T75.5 1382T56 1418Q59 1426 80.5 1432.5T153.5 1441.5T215 1430Q216 1427 219 1406T242 1339L277 1260L357 1122Q439 982 456 960L591 762Q636 844 658 887L736 1055Q802 1196 806 1208L846 1323Q864 1375 870 1405T883 1448.5T901.5 1465.5T937 1456L1007 1414Q1045 1392 1061.5 1374.5T1075 1342L1053 1315L999 1248Q947 1164 941 1153L842 983Q760 837 702.5 733.5T585 530T497 378.5T453 301T432 259L418 196Q409 167 387.5 141T327 82T253.5 32T210.5 24.5T206 53T224 98L262 178L325 276Q328 282 344 311L436 468L550 679V679z" />
    <glyph glyph-name="z"
      unicode="&#x7A;"
      horiz-adv-x="1194" d=" M230 1408L449 1418L721 1420L823 1417Q869 1415 894 1411L954 1396Q999 1385 1016.5 1375.5T1037 1352.5T1013 1312L954 1255L896 1195L786 1081Q676 964 658 945L494 770Q425 702 404 678.5T340 602.5T306.5 540.5T343 533L430 536L578 546L810 549H939L1038 540Q1086 536 1110 518.5T1126 466Q1120 444 1107.5 439T1066 434L877 431Q806 429 655.5 425T425.5 416.5T272 402.5T163.5 399T120.5 419T138 477Q158 512 202.5 568.5T319.5 708T502 912.5T674.5 1106.5T763.5 1207.5T808 1260T822.5 1294T758 1307.5T643 1310Q572 1308 479 1299L301 1280Q212 1271 170 1263T114 1263Q108 1266 82.5 1310T57 1365.5T63 1385T114 1399L230 1408V1408z" />
    <glyph glyph-name="uni963F"
      unicode="&#x963F;"
      horiz-adv-x="2048" d=" M309 1445L316 1520L342 1536Q380 1514 385 1502T395.5 1453.5T400 1403L385 1262Q383 1248 382.5 1182T380 1057L360 648L345 400Q348 397 348.5 396T346 389.5T347 367L345 331L350 290Q348 275 330.5 253.5T299 234Q286 235 274 253T261.5 294T261 322L290 654L306 1239zM460 1117Q477 1117 492 1116Q598 1104 610.5 1167.5T592 1287Q575 1315 562 1326T507 1360.5T462.5 1395.5T470 1424Q472 1428 484 1445L531 1522L574 1582L604 1636Q617 1655 615.5 1662.5T601.5 1676.5T493 1647L387 1607Q349 1593 318 1625T282.5 1675T277.5 1696.5T281 1706Q285 1714 290.5 1717T318 1726L371 1751Q380 1755 426 1766L655 1821Q713 1839 739 1831.5T791.5 1792T816 1741Q814 1728 795 1703T749.5 1634.5T700 1558T668.5 1511T644 1474.5T627.5 1443.5T657 1401Q685 1367 696.5 1329T708.5 1224T697 1114Q692 1098 670 1043T640 973L582 879Q570 851 540 860Q517 865 508 908.5T480.5 1012.5T455 1088.5T451 1106L460 1117V1117zM796 1609Q813 1617 823 1620T1031.5 1646T1299 1669.5T1382 1672L1451 1680Q1455 1680 1529 1675L1648 1674Q1704 1672 1759.5 1656.5T1816.5 1607.5T1782 1566T1667 1562L1571 1567Q1537 1556 1521 1524.5T1494.5 1417.5T1490.5 1271T1498 1196L1497 1059V794L1503 629L1497 541Q1489 414 1481.5 361T1457.5 251T1428 198Q1406 203 1387 257T1346.5 360.5T1317 433.5T1305 466.5T1300.5 483.5T1311 501L1359 524Q1429 558 1428 696Q1427 707 1424 772T1420.5 929T1417 1049T1411 1102T1408 1138L1399 1315L1389 1332Q1373 1313 1367 1303L1343 1259L1311 1215Q1286 1178 1276 1118T1252.5 1044.5T1215 1025L1164 1013L1139 1001L1063 992L1033 980L972 961Q972 940 970 923.5T963 908L928 904Q910 927 904 940L892 971L880 999Q863 1045 860 1056L844 1116Q838 1132 822.5 1172T802 1234L787 1319Q785 1326 784.5 1340T825 1354Q853 1353 865.5 1331T881 1288L885 1244L909 1179Q927 1105 935 1095T1008.5 1081T1123.5 1118T1177.5 1215T1153.5 1302T1079 1328Q1065 1326 1035.5 1313.5T998 1302Q982 1303 968.5 1315T952.5 1337T1004 1371Q1058 1394 1067 1395.5T1088 1398Q1101 1398 1136.5 1393T1190 1389Q1193 1389 1211.5 1390.5T1248 1392Q1353 1389 1364 1374L1386 1348Q1389 1351 1390 1354T1386 1372Q1384 1375 1382 1407.5T1365.5 1474T1335.5 1524.5T1256 1536L1206 1532Q1073 1521 988 1502T874 1481.5T805 1516Q749 1563 771 1581L796 1609V1609z" />
    <glyph glyph-name="uni788D"
      unicode="&#x788D;"
      horiz-adv-x="2048" d=" M440 1043Q443 1092 442 1129.5T450 1186Q460 1209 476 1211L503 1208Q515 1208 532.5 1249T549 1287T539 1260L576 1362Q593 1415 603 1496L611 1568Q553 1553 521 1557T454 1590.5T418 1640.5T450 1685Q480 1707 620 1729.5T816 1756.5T937 1757Q987 1753 1001 1738T1017.5 1695T1009 1650Q992 1625 940 1620L878 1617Q794 1608 764 1541L746 1491L679 1314L640 1233Q747 1241 795 1237.5T969 1210Q1040 1244 1098.5 1257T1209 1274.5T1283 1282L1365 1294L1439 1301Q1423 1352 1403 1365.5T1331 1376Q1252 1371 1222 1349L1178 1311Q1156 1296 1132.5 1299.5T1105.5 1321T1105 1351L1120 1394Q1127 1425 1113 1466Q1109 1476 1080.5 1530T1042 1608.5T1030 1650T1043.5 1683.5T1077 1688Q1081 1684 1089.5 1662.5T1112.5 1633T1170 1636Q1295 1667 1340 1669Q1371 1669 1415.5 1658.5T1444 1611Q1435 1591 1331.5 1566.5T1202 1526.5T1177 1497Q1178 1464 1253 1463Q1299 1462 1329.5 1466T1404 1484.5T1458.5 1511.5T1473 1567L1483 1675Q1485 1749 1458 1776Q1444 1789 1408.5 1800T1340 1809Q1319 1807 1298.5 1800T1243.5 1780T1194 1764Q1157 1755 1123 1770.5T1091 1800Q1092 1809 1123.5 1827.5T1220.5 1860T1332 1878Q1377 1881 1408 1875L1473 1856Q1491 1851 1537 1847T1600 1839L1650 1823Q1684 1814 1692 1802.5T1691 1767Q1690 1764 1676.5 1743T1646 1674L1618 1598L1597 1506Q1577 1432 1503 1297Q1680 1314 1753 1308T1841.5 1284T1858 1254.5T1840 1227Q1817 1208 1783 1204L1667 1205L1613 1202Q1579 1202 1565 1194T1553 1162.5T1564.5 1132T1620.5 1130.5T1747 1132Q1805 1129 1840.5 1107.5T1873 1067Q1869 1044 1827 1039L1765 1030L1631 1025Q1579 1023 1564.5 1013T1546.5 938T1542.5 858T1543 793L1545 656Q1545 640 1543 581.5T1539.5 436T1529 301L1504 186Q1500 150 1486 134T1461.5 122.5T1443 151L1350 391Q1338 418 1338.5 428T1353 447H1411Q1436 448 1452 469.5T1471.5 519.5T1468 653L1464 754Q1462 799 1452.5 867.5T1441.5 957T1429 989.5T1356 983Q1326 974 1300 968L1184 940L1103 915Q1194 867 1217 847.5T1249 803T1266 722.5T1253 637Q1237 615 1210.5 606T1173 603Q1161 608 1145 644.5T1123 695T1100.5 750T1042 897Q1015 911 988.5 920T957 939T957 964Q967 997 1039.5 1024T1166 1062L1320 1093L1384 1103Q1399 1106 1405 1113.5T1401 1145Q1385 1179 1339 1177Q1319 1176 1207.5 1145.5T1051 1119Q1014 1121 978 1157Q955 1124 948.5 1110.5T919.5 1022.5T896.5 908T888.5 858T857.5 835.5T740 793.5T630 754T606 735L584 712Q569 700 549 702T515 741L508 809L477 926Q442 878 417.5 851.5T388 813L374 766Q369 754 357.5 736T250 669L152 619Q122 601 102.5 600T73.5 613.5T139 702L202 768L282 845Q347 910 440 1043zM768 1035Q769 1086 748.5 1121.5T677 1150Q655 1146 614.5 1105.5T565 1048T553.5 999T563 926Q567 907 579 888.5T630 864.5T708 888Q743 914 754.5 946.5T768 1035z" />
    <glyph glyph-name="uni516B"
      unicode="&#x516B;"
      horiz-adv-x="2048" d=" M764 1351Q781 1337 791.5 1325.5T824 1280.5T855.5 1228T860 1193Q856 1183 808.5 1136.5T681.5 972.5T577 819.5T543 754L526 686Q512 653 464.5 613T349.5 534T269.5 506.5T272 555Q281 576 322 636L374 718Q397 753 423 781L486 849Q505 875 566.5 1019.5T644 1189L687 1252Q699 1274 713 1326T764 1351zM1900 554Q1898 551 1876.5 544.5T1817 541Q1708 549 1608.5 589.5T1477.5 661.5T1396.5 782T1257 1064.5T1109.5 1354T999 1480T906 1522T854.5 1559.5T848 1593Q857 1610 896 1607Q944 1602 999.5 1575.5T1088.5 1520T1169.5 1428.5T1255 1303L1370 1090Q1453 946 1524 884.5T1668 779.5T1759 723.5T1825.5 668T1890 595T1900 554z" />
    <glyph glyph-name="uni8DCB"
      unicode="&#x8DCB;"
      horiz-adv-x="2048" d=" M283 503Q351 556 366.5 587.5T379 643L344 857Q299 1010 308 1018Q311 1021 336 1031T398.5 1040T451 1015Q457 1003 455.5 969.5T462 840L473 689Q480 623 494 630L541 643Q557 653 570 660T584 669L599 717Q604 783 607 843.5T609 1007Q607 1086 604 1146.5T577 1211Q568 1212 552.5 1203.5T533 1190L521 1157L508 1133Q488 1151 482 1163L469 1196L444 1237Q439 1247 434.5 1277T406.5 1399.5T367.5 1530T351 1575L344 1612Q339 1636 347 1652T376 1642Q422 1580 425 1569L432 1528L438 1518Q438 1517 443 1485.5T466 1402L476 1371Q483 1350 494.5 1342.5T548 1344L631 1359Q710 1380 733.5 1434T753 1510Q752 1511 750.5 1516.5T746 1537.5T736.5 1577.5T714.5 1620T659 1638L537 1623Q527 1627 515.5 1636.5T503.5 1653.5T528.5 1693T651 1719L850 1706Q867 1704 918.5 1683T943 1615L914 1586Q904 1575 892 1534L860 1441Q828 1310 815.5 1293T778 1272L753 1269Q735 1264 724.5 1249.5T701.5 1147.5T733 1062L850 1076Q859 1077 865 1077Q900 1076 917 1057T934.5 1021.5T926 993Q920 984 904.5 974.5T807 949.5T713 915.5T699 850L692 739L774 755Q865 772 864 732Q863 723 855.5 710T784 656L710 612L641 561L480 461L424 419L322 353Q288 319 274.5 317T238 329Q211 344 192 373T179 421Q182 430 187.5 435.5T283 503zM894 1170Q874 1221 861 1244.5T846 1288.5T908 1339L983 1367Q1003 1375 1013 1376L1042 1378Q1056 1385 1062 1429.5T1061 1581L1054 1696Q1052 1715 1046.5 1765T1057 1825.5T1129 1825L1173 1817Q1212 1808 1220.5 1794.5T1215 1732L1187 1441Q1178 1401 1183 1394Q1189 1384 1237.5 1395T1339.5 1405.5T1451 1408T1527 1410Q1581 1405 1598.5 1381.5T1616 1344Q1615 1333 1609 1322T1595 1306L1573 1293L1568 1286L1543 1287L1526 1283L1500 1279Q1468 1272 1371 1265T1223.5 1237.5T1147 1146L1121 1057L1116 1041L1104 964Q1121 940 1130 934T1140 928L1153 913Q1155 909 1163.5 903T1211.5 855T1288.5 779.5T1339.5 746.5T1348 854Q1344 910 1330.5 929.5T1287 956Q1279 957 1227.5 955.5T1183 981Q1186 994 1222 1018.5T1271 1046L1307 1047Q1333 1048 1424.5 1075.5T1529.5 1081.5T1542 1033Q1541 1021 1534.5 989T1498.5 869T1467 768L1438 646L1513 579Q1565 532 1693 481L1886 390Q1995 337 1992 323.5T1978.5 297T1894 281L1729 273Q1692 271 1655.5 280T1591 306T1528 357T1429 458T1349.5 525.5T1251 464L1165 414L1119 372Q1073 334 1009 322L907 314Q848 304 834 311.5T819.5 322T822 330Q839 363 884 394.5T1061 471.5T1225 544L1250 569Q1277 594 1276 605Q1275 609 1260.5 636T1229 684L1212 703L1147 786L1067 847Q1053 787 1041 760L1008 692L997 663L933 561L868 451L806 374Q793 350 789.5 327T782 293T703.5 238.5T590 192.5T542.5 197T577 254Q629 315 645 328L738 397Q785 435 833 512T901 634L918 675L949 743Q950 746 971 819L997 906Q1004 938 1008 984T1013 1039L1011 1119Q1010 1178 997 1184Q995 1184 958 1180L932 1179L894 1170V1170zM1573 1512Q1578 1478 1562 1463.5T1531 1449Q1518 1448 1465 1477T1409 1510L1375 1568Q1370 1576 1365 1582L1325 1616Q1310 1629 1306 1640.5T1301.5 1658T1306.5 1684T1377 1693Q1409 1687 1453 1671T1533 1595T1573 1512z" />
    <glyph glyph-name="uni767D"
      unicode="&#x767D;"
      horiz-adv-x="2048" d=" M551 1392L667 1568L676 1586Q724 1687 747 1755.5T794 1824.5T843 1805Q900 1758 920 1746.5T946.5 1724.5T943 1686Q934 1662 877.5 1599T763 1445T678.5 1330.5T644.5 1298T634.5 1276T644 1204L650 1110Q652 1076 664.5 1036.5T691.5 990.5T736 989L830 1005Q945 1024 1034.5 1026T1150 1032.5T1183 1038Q1193 1038 1255 1019.5T1317 976Q1316 969 1302.5 944.5T1263.5 908T1211.5 892.5T1099 880T952.5 862T870 852L799 847Q721 837 706 817T694 763L706 686L710 634Q712 621 724.5 597.5T762 561.5T836 551L898 553H1029L1207 568L1305 575Q1377 581 1394 605.5T1414 690L1428 830Q1428 840 1428.5 851.5T1429.5 909T1430.5 987T1431.5 1061.5T1418 1148Q1400 1196 1376.5 1212.5T1308.5 1245.5T1200 1259Q1151 1256 1067 1237.5T946.5 1206.5T898 1194Q895 1193 832 1202.5T753 1223.5T741 1258Q743 1277 789.5 1299T884 1327L1083 1352Q1124 1357 1151.5 1355.5T1240 1339.5T1320 1324L1406 1317Q1481 1310 1538.5 1310.5T1621.5 1301.5T1655 1273.5T1638 1212Q1614 1170 1610 1155L1603 1103L1593 1058Q1592 1052 1590 1009.5T1581 904L1567 750Q1558 669 1544 604T1500.5 441.5T1446.5 315.5T1387 315Q1367 329 1360 362L1352 395Q1345 411 1328.5 425T1294 438Q1188 429 1169 428L1041 425L928 414Q836 406 824.5 398T792 357T746.5 322.5T710 333T688 392L644 588L615 768L598 843Q593 863 587.5 924.5T574 1031L555 1122Q553 1133 552 1138L545 1160L538 1202Q519 1186 493.5 1166.5T466 1145L432 1110Q414 1094 386 1083L337 1063Q310 1049 305.5 1053T307 1084Q315 1121 323 1131.5T345.5 1158T385.5 1197T551 1392z" />
    <glyph glyph-name="uni767E"
      unicode="&#x767E;"
      horiz-adv-x="2048" d=" M424 1665Q476 1666 502 1668L715 1682L1094 1699L1310 1694L1561 1691Q1654 1688 1676 1660T1696 1613Q1688 1554 1593 1558L1541 1562H1495L1428 1572L1205 1562Q1084 1556 1080.5 1553T1061 1519.5T1028 1461L935 1291L908 1249L924 1253L1150 1236L1256 1215L1365 1219Q1410 1220 1431 1208.5T1459 1187T1456 1144Q1452 1131 1431.5 1076.5T1402 979T1383.5 874T1373 798.5T1369.5 704T1369 604L1370 590Q1371 562 1361 476L1346 324Q1342 295 1335.5 279T1309.5 244T1274 227Q1254 229 1242 253L1228 304Q1222 315 1204.5 330.5T1166 344Q1147 341 1053 336L888 321Q809 322 791 307L748 265Q727 256 711 266Q689 278 688 317L682 400Q674 497 670 556T662 762.5T653 955L643 1036Q637 1099 631.5 1130T633 1177Q638 1190 650.5 1199T714 1218.5T773.5 1238.5T789 1270L801 1316L834 1400Q838 1411 848 1447.5T857 1504.5T847 1533T809 1540Q779 1538 741 1534.5T595 1500T427 1461Q424 1460 411 1462L372 1465Q361 1467 309.5 1506T275 1595Q293 1647 424 1665zM909 447L1121 454Q1243 458 1241 532L1236 663Q1225 782 1220 866.5T1209.5 1012T1173.5 1094.5T1114 1120L1044 1126L1033 1128Q1006 1131 898.5 1101.5T776.5 1039.5T763 951Q763 938 765.5 923T795 890Q812 877 926 893.5T1070 909Q1123 905 1161 867.5T1161 798Q1157 794 1145 788.5T1086.5 780.5T999 770L850 728Q796 713 773 693T749.5 611T754 514Q756 494 772.5 457T909 447z" />
    <glyph glyph-name="uni7248"
      unicode="&#x7248;"
      horiz-adv-x="2048" d=" M430 919L437 956L445 1055L450 1084L452 1155L453 1176V1205L455 1260L453 1433Q452 1444 449 1531.5T443 1650.5T442 1696Q443 1715 450.5 1727T464 1741Q467 1742 481 1740L507 1738Q514 1736 549 1713L578 1694Q598 1677 605 1667T604 1627Q596 1598 590.5 1569T580.5 1504.5T573.5 1455.5T575.5 1434.5T593 1423Q612 1415 671 1428T741.5 1451T770 1509.5T793 1619L806 1781Q813 1810 830 1810Q835 1809 863 1791.5T905.5 1755T920 1703Q919 1692 906 1639L891 1564Q877 1504 888 1489Q896 1476 922.5 1465.5T961.5 1444.5T974 1412Q973 1393 963 1384.5T936.5 1372T885.5 1355.5T830 1339L762 1328L668 1299Q620 1286 605.5 1278.5T573.5 1247.5T552 1194L550 1155Q548 1126 553.5 1119T584 1106T633 1105L714 1126H733L783 1134H794Q849 1132 861.5 1117T874.5 1095.5T872 1083T839 1044.5T798 982.5T781 894L762 764L755 641Q753 627 744.5 556T734 446T730 345.5T725 250T706 177.5T676 140Q662 140 649.5 166.5T630 241.5T626 323Q626 331 631.5 365.5T647 476L661 587L680 798L687 871Q688 893 689.5 935T681 984.5T618 978Q572 965 556.5 956.5T529 922T511 867L497 799Q483 736 468.5 690.5T428.5 585T396 503L371 418Q360 390 341.5 359T246.5 255.5T158 202.5T152 243Q159 264 169.5 293.5T188 339L224 400L260 464L299 518Q340 575 371 658T414 817zM1084 1517L1235 1615Q1299 1656 1314 1671L1343 1700Q1384 1735 1425 1704Q1436 1694 1478 1643T1520 1579Q1519 1567 1499 1547.5T1460.5 1520.5T1383 1508L1235 1480Q1182 1471 1092 1473Q1096 1447 1102.5 1423T1110.5 1386T1100 1317Q1097 1303 1078 1190T1064 1070Q1069 1061 1086 1046T1167 967L1279 863L1332 811Q1345 835 1349.5 846.5T1364.5 919.5T1375.5 995T1369 1055Q1359 1107 1339.5 1126T1285 1142Q1275 1141 1249 1131.5T1220 1123Q1156 1128 1153 1150.5T1171 1184Q1174 1185 1201 1203L1236 1219L1280 1245Q1293 1250 1308 1251Q1319 1251 1330 1248L1395 1218Q1417 1215 1434 1215L1486 1225L1503 1219L1561 1212Q1579 1207 1589 1195.5T1599.5 1174T1597 1157T1578.5 1133.5T1551.5 1096T1536 1053L1534 1043Q1532 1036 1518 1002T1489.5 912.5T1467 834L1453 800L1428 735Q1499 665 1545 629T1599 587.5T1634.5 567.5T1680 546L1755 519Q1798 503 1820 490.5T1917.5 429T1986 354Q1982 342 1969 337T1924 328L1864 316Q1822 309 1742 308Q1665 306 1639 325T1600 356.5T1548 403T1505 442L1462 491L1394 552L1343 606Q1301 571 1279 557L1189 503Q1137 464 1109.5 455T999 442Q970 440 958 443.5T938.5 454T930.5 473.5T971 502Q999 513 1025.5 528.5T1070 549.5T1116 575L1181 610Q1210 628 1271 702Q1250 726 1240 739L1191 794L1053 952Q1047 901 1040 854T1008.5 732.5T949.5 571.5T894.5 447T839.5 382T784.5 347.5T759 347.5T758 373Q762 392 770 415.5T794 473T827 534L866 592Q896 638 917 685.5T959 844.5T985 998L995 1117Q1004 1231 1003 1265Q1002 1266 1000 1291.5T995 1370T995 1442Q999 1477 1017 1505T1056 1542.5T1078 1541L1084 1517V1517z" />
    <glyph glyph-name="uni8584"
      unicode="&#x8584;"
      horiz-adv-x="2048" d=" M1251 1520Q1304 1519 1332 1520L1401 1521H1410Q1446 1520 1486 1502Q1465 1532 1460 1553.5T1466 1588.5T1510 1598Q1618 1582 1647 1534T1675.5 1464.5T1654.5 1429.5T1623 1417L1578 1432L1564 1435L1517 1470L1484 1437Q1470 1425 1441 1425L1357 1428L1300 1421L1237 1414Q1233 1384 1230 1343Q1323 1353 1410 1352.5T1530.5 1337.5T1562 1305L1551 1283Q1547 1276 1544 1252L1532 1191Q1531 1185 1532 1178L1538 1011Q1538 1005 1530 988L1514 932Q1503 898 1488.5 892T1444 921Q1427 939 1424.5 945T1419.5 976.5T1410.5 1004.5T1387 1000.5T1365 994Q1363 993 1348 994L1295 987L1235 984L1221 980Q1215 966 1214 959L1200 896Q1185 869 1167.5 870.5T1140.5 891.5T1128 946L1126 964Q1112 962 1089 958T1049 956Q1024 958 997.5 972T969 995.5T981 1019Q991 1029 1042 1040L1075 1049L1124 1059V1104Q1112 1104 1101.5 1103.5T1088 1104Q1073 1104 1038.5 1116.5T1011 1153Q1018 1180 1122 1200Q1121 1238 1120 1274Q981 1232 966.5 1205.5T937.5 1087.5T922 955T910 901T889 887.5T874 898Q872 901 871 913L862 952Q860 958 861 966L863 991L858 1058L862 1164Q863 1207 865 1217L877 1264Q889 1320 916 1312L942 1291Q946 1290 994 1304T1121 1328V1354L1120 1397Q985 1360 971 1358Q931 1352 908 1362L869 1385Q849 1395 845 1399T834.5 1418.5T878 1461Q891 1468 933 1480.5T1008 1500T1118 1512L1117 1534L1118 1573Q1106 1579 1101.5 1586T1102 1612Q1103 1616 1108.5 1632.5T1122.5 1679T1129.5 1717T1077 1714Q1024 1702 914.5 1694T801 1679.5T808 1640L815 1612Q825 1573 825.5 1569T824 1550.5T813 1529T783 1531Q757 1540 738 1572.5T711.5 1626.5T696.5 1653.5T676 1660Q666 1660 652 1657L556 1631L495 1620Q472 1614 444.5 1601T408 1589Q393 1589 370 1605.5T332.5 1637.5T313 1663.5T305.5 1686T304.5 1716.5T342 1746Q351 1748 392.5 1745.5T634 1779Q628 1794 624 1801L585 1852L573 1887Q564 1908 565 1913Q565 1920 573 1934.5T590 1957.5T640 1936Q655 1924 668 1908L744 1802Q752 1794 764.5 1787.5T837 1796Q884 1807 955 1808T1088 1816.5T1156.5 1829.5T1166 1857.5T1169.5 1926.5T1180.5 1983T1206 1995Q1211 1995 1229 1992L1284 1981Q1304 1973 1318.5 1956.5T1336 1925Q1338 1909 1328 1883L1307 1829L1487 1830Q1595 1830 1625.5 1801T1656 1760Q1655 1750 1642.5 1734.5T1597.5 1713.5T1507 1712Q1476 1713 1412.5 1716T1314 1721Q1290 1722 1282.5 1717T1267 1700L1232 1637Q1216 1612 1188 1596Q1239 1595 1246.5 1574.5T1253 1539L1251 1520V1520zM1228 1294Q1223 1251 1223 1240L1222 1211Q1308 1216 1331.5 1212T1367 1188.5T1373 1152T1248 1115L1219 1112L1217 1069Q1305 1082 1331 1083T1413 1061Q1407 1115 1405 1159.5T1395.5 1218.5T1372.5 1254.5T1344.5 1283.5T1309 1293H1239L1228 1294V1294zM424 1194Q484 1184 504.5 1174.5T553.5 1125T581 1047Q579 1010 558 991.5T510 980Q486 985 436 1036L426 1046L374 1104L335 1143Q314 1166 319 1187.5T424 1194zM593 1499Q626 1498 639 1495L669 1484Q695 1474 701 1471L716 1458L731 1451Q748 1442 758 1421T775.5 1354.5T727 1303Q708 1301 657 1322T602 1346T572 1370L555 1383Q514 1414 507.5 1457T593 1499zM1334 854Q1322 893 1331.5 905.5T1362 919Q1370 919 1398 911T1435 898L1476 869Q1480 868 1489 868H1717Q1792 868 1811.5 855.5T1839.5 826.5T1845 801Q1841 791 1821 782.5T1782 774L1565 768L1472 769Q1468 764 1464.5 755.5T1465 699L1458 582L1465 497L1461 389Q1460 375 1463.5 296.5T1465 177Q1463 143 1455 94T1411 68Q1405 71 1396 87.5T1357 139L1311 199Q1299 212 1262.5 245T1230 304Q1231 312 1237 320T1272 337T1320 356.5T1353.5 390.5T1369 426T1370 441L1358 624Q1351 716 1336.5 731.5T1300 746L1023 722Q1013 721 917 701T779 662.5T722.5 643.5T672 678Q627 720 640 747Q644 756 663 766T780.5 798T909 825L1023 836L1149 850L1334 854V854zM907 639Q907 643 912.5 649.5T932 659Q950 662 987.5 645.5T1037.5 621.5T1069.5 594T1100 558.5T1106 500Q1103 480 1093.5 451.5T1066.5 410.5T1010 414Q989 422 985 428T972 462L954 498Q949 507 941 541L907 639V639zM501 730L585 894Q595 914 613.5 941.5T647.5 998.5T678 1017T686 977Q685 973 668 921L647 853Q645 847 624.5 799.5T590 697T573 631L542 557Q535 540 507 436.5T472 256L468 206Q464 157 439 158Q421 158 410 192L396 232L362 343L338 416Q328 444 327.5 463T335 494Q339 500 349 506L384 526Q396 535 414 561T442 607L475 681L501 730V730z" />
    <glyph glyph-name="uni4FDD"
      unicode="&#x4FDD;"
      horiz-adv-x="2048" d=" M432 1431L490 1593L545 1730Q571 1804 587.5 1827.5T633 1835Q633 1834 657 1817L762 1740Q768 1721 762 1697Q758 1683 728 1636T676 1541.5T648 1473L633 1413L626 1389Q623 1379 622 1364L597 1135L561 695Q551 574 549.5 465T544 306.5T522 205L511 173Q498 143 477.5 159.5T444.5 222.5T436 301L439 335L460 547L465 649Q465 651 471.5 700T481 799L490 992Q493 1067 491 1119.5T490 1179L491 1191L486 1216Q427 1139 389 1102T343 1051L309 985L285 959L265 929Q262 925 189.5 850T100 791T81 815T90 858T162.5 982.5T254 1101L287 1131Q321 1165 366 1272L432 1431V1431zM1078 983Q801 905 762 912Q737 915 701.5 952T673 1033Q679 1077 890 1098L1078 1126Q1178 1126 1188 1138.5T1196 1161L1195 1165Q1194 1166 1196 1190.5T1188.5 1238.5T1174 1263Q1166 1263 1119 1241.5T1052 1235Q1045 1240 1040 1248.5T1029 1282T1017 1324.5T984.5 1412T946 1506L903 1585Q893 1606 894 1648.5T931 1691Q943 1690 964.5 1667.5T992 1630.5T1003.5 1571.5T1025 1486T1058.5 1417.5T1103 1385Q1112 1383 1132 1385T1210 1389T1320.5 1395.5T1393.5 1424.5T1422 1523T1429.5 1626T1401 1685.5T1312 1716Q1295 1715 1282 1712L1207 1679Q1199 1677 1133 1671T1060.5 1695.5T1122 1761Q1158 1779 1188 1784L1241 1789L1295 1795Q1316 1795 1339 1791L1446 1758L1556 1754Q1634 1746 1642 1720T1625 1639Q1618 1624 1602 1586.5T1562 1495T1537.5 1387.5T1532 1318.5T1504.5 1290T1474 1276L1361 1288Q1349 1282 1345.5 1277T1329.5 1210.5T1321.5 1147.5T1354 1148L1515 1158Q1667 1167 1735.5 1161.5T1806.5 1131.5T1800 1094Q1778 1062 1713 1054L1632 1047Q1583 1042 1579 1042L1497 1043L1423 1035Q1367 1032 1357 1023.5T1347 1014L1356 1003L1354 996Q1352 990 1365 978L1392 935Q1398 926 1417 910.5T1487.5 846.5T1606 758T1724 696L1887 624L1964 574Q1994 555 1997 524.5T1893 513Q1883 514 1795.5 516.5T1669.5 539.5T1564.5 610T1469 692L1315 850L1305 525L1302 359Q1300 294 1295.5 263T1276 186T1224.5 139T1196 291L1206 487L1198 902Q1187 898 1181 895T1104.5 781.5T983 624.5T908 565.5T880 549L866 517Q856 495 827 477L750 440Q710 420 700 418L657 410Q624 398 616.5 402.5T607 425.5T636 473Q656 492 669 505.5T684 521L721 545L823 613Q874 647 894.5 666.5T960.5 756T1035 890L1078 983V983z" />
    <glyph glyph-name="uni5B9D"
      unicode="&#x5B9D;"
      horiz-adv-x="2048" d=" M476 1609Q519 1615 541 1620L626 1640Q702 1656 763 1664T826.5 1681T815 1722L794 1792Q785 1818 790 1842.5T851 1859Q865 1856 934 1823.5T1014 1778L1090 1696L1314 1682L1510 1656Q1512 1655 1608 1626T1748.5 1573T1835 1509.5T1858 1440Q1849 1426 1837 1422.5T1807 1417.5T1724 1402T1612.5 1368T1548 1353.5T1523 1383Q1520 1389 1534 1427T1548 1487Q1546 1558 1479 1566L1322 1583Q1260 1589 1183 1591.5T1094 1586Q1084 1579 1079 1567L1065 1509Q1063 1505 1035 1473T962 1462Q958 1463 929 1484.5T898 1509L855 1564Q849 1566 787 1551L662 1520Q492 1478 465.5 1436T434 1356.5T425 1273T421.5 1188.5T408.5 1123.5T371 1098.5T325.5 1140T319 1306L330 1437Q337 1502 351.5 1546T395 1637T441 1682Q467 1677 468 1655L476 1609V1609zM877 1266L1044 1286Q1304 1317 1348 1310Q1381 1304 1414 1276.5T1446 1225Q1442 1173 1345 1166L1182 1138Q1126 1130 1107 1119T1077.5 1086T1066 1022T1067 963Q1069 938 1080.5 923.5T1164.5 916.5T1259 925Q1371 925 1409 888T1447 832Q1446 816 1427 792.5T1257.5 767.5T1087.5 751T1067 684V572Q1066 521 1070 502Q1076 462 1093.5 448.5T1147 432Q1186 428 1284 432.5T1464 437Q1566 436 1601 428.5T1670.5 377T1680 302Q1667 286 1597.5 297T1455 305Q1358 300 1117.5 277.5T797 244T671 220L579 192Q532 180 500 185Q456 191 404 232.5T365 314Q374 342 411.5 355T565.5 376.5T777 397T895 433.5T925.5 506T935 597.5T936.5 673T925.5 716.5T827.5 707T664 695Q573 705 575 773Q576 809 606 831.5T768 870T911 903T921 959Q919 979 914.5 1014T894 1063Q878 1076 831 1072T739 1069Q624 1070 592.5 1095T552 1149T552 1196Q561 1215 587 1224T877 1266zM1238 707Q1292 702 1339 677.5T1408.5 624T1440 526T1395 454Q1382 453 1361.5 463.5T1330 487L1307 520L1293 536Q1286 543 1265 574.5T1227 625T1201 659T1211 697Q1220 708 1238 707z" />
    <glyph glyph-name="uni62A5"
      unicode="&#x62A5;"
      horiz-adv-x="2048" d=" M996 944V928Q992 896 987 873Q984 786 985 699T985 590L980 531L981 462Q980 460 978 407Q976 370 977.5 305.5T978 219Q977 200 969 140.5T940 86Q910 92 898.5 141T885 208.5T892 297Q898 349 901.5 455T910.5 683T918 874T918 1056Q917 1073 914.5 1152.5T913 1256Q913 1260 915 1317L917 1408Q918 1482 915 1535.5T913 1600L924 1671Q928 1706 939.5 1707.5T966.5 1688.5T989.5 1663.5T1028 1667Q1045 1671 1100.5 1691.5T1200 1716Q1223 1717 1248 1715L1352 1698Q1446 1692 1460 1687.5T1494.5 1660.5T1516.5 1626T1490 1575Q1474 1552 1468.5 1535T1447 1443T1399.5 1305.5T1357.5 1230T1325 1201.5T1286 1192Q1271 1196 1245 1242.5T1214 1307T1215 1337Q1221 1351 1261 1360.5T1314 1379.5T1336.5 1430.5T1337 1528Q1328 1577 1302 1606.5T1207 1630Q1178 1627 1165 1621T1108 1583T1053.5 1541T1033.5 1511T1017 1423L1003 1325Q1002 1316 1000 1183L997 994Q1014 995 1027 993T1074 973.5T1121 944L1136 928L1160 910L1185 888L1239 847L1278 809L1305 788L1332 767Q1335 781 1337 788L1349 826Q1355 850 1362 909.5T1373 993.5T1368 1035.5T1335 1059Q1319 1062 1271 1048L1221 1033L1186 1017Q1170 1010 1157 1010Q1110 1006 1093.5 1032T1078 1075Q1078 1087 1086.5 1100.5T1149 1131T1226.5 1152T1310.5 1155.5T1375 1156L1449 1165Q1473 1167 1507 1165Q1539 1162 1551 1151T1563.5 1115.5T1550 1052Q1524 981 1521 973L1475 860L1442 766L1413 706Q1520 615 1556 596T1668 547L1761 507Q1795 492 1872 462.5T1973.5 413T1997 378Q1995 364 1976.5 350T1936 331T1847.5 321T1739 316Q1654 315 1619.5 334T1509 425L1440 490Q1349 576 1348 578Q1331 547 1307.5 514.5T1282 476L1270 440Q1257 414 1197 387.5T1135 361L1092 345Q1062 333 1040.5 329T1014 333T1019.5 361T1078.5 428.5T1172.5 514.5T1237 573T1286 645L1267 667Q1247 693 1229.5 715.5T1128 826T996 944zM653 1157Q667 1164 674 1169L702 1191Q720 1198 726 1191.5T727 1168Q725 1161 708 1132L689 1096Q673 1070 672 1067L667 1046L651 1012Q633 973 633 882V754L630 657V503L626 384V290L623 211Q623 159 621.5 132.5T580 123Q564 129 551 158L526 215Q517 234 477 307.5T421.5 404T411 442Q415 455 436 466.5T483 485.5T519.5 502.5T536 538.5T544 623L547 726V886Q515 853 500 837L421 743Q359 671 357 668L307 601L260 548Q218 498 207.5 496.5T179 512Q177 513 145.5 547T109 595.5T110 627Q115 641 139.5 660T208.5 719T289.5 788T334 825T417 915L465 967Q531 1041 541 1063.5T553.5 1139T544 1201T476 1192Q414 1172 393 1173Q370 1173 356 1185.5T327.5 1240T318 1296Q322 1311 352.5 1329T411 1356L466 1372Q535 1395 545.5 1402.5T564 1423T572 1480V1585Q571 1653 568 1709.5T564.5 1794T560 1845T562.5 1887.5T626 1892Q663 1881 676.5 1869.5T697 1841T704.5 1806.5T698 1750Q691 1714 686 1674T679 1577T670.5 1481T673 1431Q683 1417 731.5 1410.5T804.5 1395T844.5 1363T860.5 1325.5T853 1301Q845 1290 827 1283L730 1262Q680 1248 678 1233L653 1157V1157z" />
    <glyph glyph-name="uni5317"
      unicode="&#x5317;"
      horiz-adv-x="2048" d=" M327 1174Q324 1183 326 1189T342.5 1199T381 1206T455.5 1218.5T607 1240T721 1272.5T735.5 1302.5T734 1386L721 1660Q718 1722 715 1741.5T720 1770.5T763 1778Q821 1773 866 1735T914 1680.5T912 1647L893 1608Q881 1583 877 1545L870 1429L856 1273L849 1044L846 958L849 793L840 690L842 647Q841 642 837.5 613.5T834.5 530T834 449L832 423L829 375Q826 334 809 304T777 277Q766 278 751.5 308.5T737 359L742 419L744 639L742 667Q717 641 662 592T543 480Q505 444 476.5 409T432.5 342T407 307.5T365 349Q335 388 321 414.5T294 458.5T280 485T288.5 511.5T320 542L524 664Q563 687 585 706L628 745L670 779L732 842Q741 847 743 850.5T746 866V885Q746 930 745 945L740 1001Q739 1005 740 1008L742 1037L739 1050L734 1114Q724 1126 651 1107Q566 1085 547 1078.5T500 1057L456 1032Q444 1025 437 1025Q425 1024 415 1030T369 1090L348 1120Q345 1125 327 1174zM1193 1075Q1247 1130 1277.5 1165.5T1348.5 1259.5T1407.5 1349T1436 1425T1454.5 1472T1496 1455Q1504 1449 1534.5 1435.5T1610.5 1395T1661 1357T1662 1334Q1661 1331 1617 1297L1591 1273L1574 1262Q1566 1256 1541.5 1229.5T1443 1148L1305 1043Q1273 1021 1236 999.5T1194 965Q1190 956 1192 936T1187.5 833.5T1186 661Q1189 593 1196.5 575.5T1217 532.5T1239.5 493.5T1279 460.5T1334.5 434T1418.5 421.5T1507 418Q1579 422 1627.5 454.5T1698 529.5T1734 578.5T1776 574Q1797 564 1850 508.5T1914 436.5T1925 407Q1923 379 1796 347T1517 309Q1429 305 1336.5 321T1198.5 374T1120 479.5T1080 622.5T1075 777L1082 1000Q1089 1245 1078.5 1414T1069 1654T1067.5 1749.5T1068 1785Q1075 1820 1109 1818Q1120 1817 1148 1797L1195 1767Q1217 1752 1243 1729T1272 1694.5T1238 1616Q1219 1583 1216 1520.5T1202 1351.5T1194 1181T1194 1095T1193 1075z" />
    <glyph glyph-name="uni80CC"
      unicode="&#x80CC;"
      horiz-adv-x="2048" d=" M773 1550Q771 1580 768 1584.5T701 1570L628 1554L565 1528Q527 1521 476.5 1557T428 1613Q429 1643 557.5 1656.5T725 1681.5T771 1700T768 1763L765 1832Q762 1866 767.5 1892.5T826 1898Q836 1893 854 1883T902.5 1861.5T940.5 1835T950 1812T945 1781Q930 1731 921 1662L906 1538Q891 1429 889.5 1363.5T849 1290Q833 1286 786 1330Q781 1329 769 1320.5T717.5 1294.5T591 1215L532 1181L477 1132Q457 1120 438 1121Q422 1121 411.5 1126.5T380.5 1152T356 1179L348 1193L333 1211Q318 1235 333 1255Q341 1265 362 1269L410 1271L561 1344L617 1366L676 1397Q742 1429 752.5 1436.5T770 1456.5T773 1550zM641 654L648 723Q668 924 669 1006.5T680.5 1117T713.5 1171T747 1192Q751 1189 761 1171T773 1110Q773 1083 764 1041.5T758.5 997T835 1000L962 1010Q1104 1021 1126 1018.5T1163.5 999.5T1181 967.5T1144 933Q1122 922 1068 915L952 896Q870 887 812.5 875T747.5 857T736 841T726 792.5T727 746T759 739Q762 739 826 748L884 753L947 761Q977 764 1138 770Q1168 771 1201 758.5T1234.5 719T1213 677Q1194 663 1144.5 657.5T1081 652.5T1065 653Q1018 650 904 632T757.5 611.5T714 598T701 550L698 485L692 423L688 343L684 285Q681 228 677 213L665 177L660 143Q644 91 617 102Q594 110 595 162V222Q596 252 601.5 277.5T608 310zM1119 1234L1372 1232Q1469 1231 1443 1153Q1434 1128 1420 1106T1400 1072T1391.5 1026T1392 946L1401 816L1404 669Q1404 644 1409.5 553T1420 347.5T1429 189T1423 114.5T1397 85Q1387 85 1375.5 98T1352 142.5T1321 215L1252 355Q1232 394 1211.5 424T1193 469Q1195 486 1217 504L1248 524Q1267 537 1272.5 550T1280.5 581T1277 648Q1264 749 1253.5 846T1237 986T1219.5 1073.5T1182 1140T1109 1161Q1097 1160 1085 1158L1036 1145L998 1142L925 1128Q901 1125 887.5 1122T857 1120.5T833.5 1144.5T859.5 1194T919 1223zM1181 1578L1327 1677Q1375 1710 1402.5 1733.5T1454.5 1793.5T1497 1837T1544 1829Q1553 1823 1587.5 1790.5T1630 1746T1636.5 1718.5T1627 1699L1481 1623L1365 1567Q1272 1521 1231 1508.5T1187 1485T1190 1458Q1195 1442 1206 1422.5T1232 1385.5T1324 1356.5T1419 1346Q1459 1346 1494 1364T1553 1423T1584.5 1471T1608 1479Q1620 1479 1700 1425T1795 1355T1808 1325Q1801 1281 1624 1273L1486 1262Q1425 1258 1345 1262Q1230 1267 1179.5 1303T1102.5 1394T1072 1544L1064 1726L1063 1772Q1059 1846 1062.5 1872.5T1080.5 1903T1118 1892Q1127 1885 1163.5 1847.5T1208.5 1793T1213 1757L1200 1728Q1196 1718 1190 1668L1181 1578V1578z" />
    <glyph glyph-name="uni672C"
      unicode="&#x672C;"
      horiz-adv-x="2048" d=" M490 705L559 785L666 950L714 1047Q755 1130 766 1159L800 1256Q832 1333 822.5 1337.5T767.5 1328.5T667 1317Q648 1317 634 1328L606 1357L581 1377Q571 1386 563.5 1401T560 1428Q569 1460 723 1487T904.5 1516.5T938.5 1527T943 1570L942 1609L930 1823Q923 1858 932.5 1868.5T964 1881L1037 1863L1102 1850Q1121 1837 1126 1817.5T1118 1740Q1116 1733 1109 1610L1105 1551V1537L1136 1535L1295 1538Q1442 1540 1462.5 1529T1489.5 1494T1479 1441Q1464 1416 1448 1409T1379 1399L1126 1383L1084 1380L1078 1290Q1107 1267 1125 1251.5T1204 1172.5T1290.5 1074T1325 1031L1465 899L1561 819L1652 769Q1683 751 1817.5 699.5T1977.5 624T2000 585Q1996 569 1973 560.5T1896 551L1785 541Q1731 538 1673 550.5T1597.5 576T1536 631L1419 739L1396 762L1257 921Q1166 1024 1120 1074T1063 1153Q1059 1069 1053 970T1047 863L1044 758Q1140 764 1158 764Q1168 763 1236.5 753.5T1362.5 730.5T1415 676Q1412 658 1387.5 635T1230 610Q1130 602 1039 597L1040 449Q1038 405 1039 384L1040 343Q1040 325 1039 300Q1038 283 1036 245.5T1029 192.5T1008 149.5T965.5 142.5T938 221T938 290L947 434L948 595Q866 586 815 576.5T744 568Q724 568 695 577T653 603T642 637Q643 654 665 671.5T717 700.5T776 715L789 716Q807 717 827 725T852 734H874Q897 734 955 753L957 1017L954 1158Q919 1107 903 1081L871 1028Q854 1002 814.5 949.5T750 856.5T711 799L657 740Q574 649 534.5 615.5T489 572L472 537Q462 518 441.5 492.5T361 442L255 404Q209 385 190 389T164 402T189 448Q214 476 270.5 528T355 601z" />
    <glyph glyph-name="uni6BD4"
      unicode="&#x6BD4;"
      horiz-adv-x="2048" d=" M378 1517Q379 1546 381 1568.5T391.5 1596.5T414 1602L500 1561L544 1545Q556 1533 561 1523.5T561 1483L556 1453Q547 1402 546 1392L544 1376Q540 1353 546.5 1341T582 1331Q664 1334 669 1335T712 1347T788 1358Q886 1355 895 1343T905 1327T904 1316Q900 1301 881 1272T853.5 1235.5T820.5 1214.5T757.5 1188T626.5 1155T520 1115.5T510.5 1014T499 873T481 794T507 760.5T577 768Q589 773 675.5 828T782 878T805 862.5T799 836Q782 805 756 772.5T658.5 665.5T556 557T496 475L461 417L418 354L399 316T359 295Q351 299 350 319.5T347 367.5T347 436L353 516L352 696L355 729L365 933L378 1285V1304V1517zM1062 1225L1052 1061Q1109 1116 1132.5 1142.5T1237.5 1282.5T1341 1442T1379.5 1507T1413.5 1528T1492 1479L1558 1432Q1570 1421 1574.5 1412T1578.5 1391.5T1548 1349L1431 1229Q1307 1112 1248 1073L1124 997Q1069 961 1041 949Q1038 904 1037 882L1033 837Q1025 743 1034 672Q1042 600 1066 549.5T1135 460.5T1344 410Q1430 404 1469.5 423T1531 469.5T1565 535T1593.5 597T1646 590Q1654 581 1673.5 555T1738 480T1796.5 408.5T1808 376Q1800 340 1654.5 317.5T1393 298Q1202 302 1079 375T937.5 576T922 827L932 1431Q934 1558 928.5 1640.5T925 1759T937.5 1801T983 1795Q1004 1787 1040 1777T1089.5 1755T1110.5 1728.5T1118 1705Q1117 1702 1117 1697L1109 1659L1098 1578Q1091 1551 1091 1548z" />
    <glyph glyph-name="uni5F7C"
      unicode="&#x5F7C;"
      horiz-adv-x="2048" d=" M838 1321Q819 1382 819.5 1409T829.5 1455T853.5 1477T889.5 1466.5T919 1451Q934 1446 978 1459.5T1067.5 1483.5T1130.5 1511.5T1136 1635Q1110 1848 1120.5 1859.5T1169 1870Q1216 1868 1255.5 1846T1301.5 1809T1293 1739Q1283 1706 1282 1653.5T1276.5 1565.5T1279 1522Q1287 1511 1343.5 1522T1452 1526Q1493 1519 1524 1509T1643.5 1460T1730 1386Q1727 1347 1633 1327.5T1468.5 1279.5T1384 1258T1374 1303L1385 1346Q1390 1375 1376.5 1393.5T1333 1412.5T1290 1399Q1276 1385 1274.5 1341T1263 1222T1272 1142L1328 1145Q1339 1145 1376.5 1134T1436 1124L1505 1131Q1551 1131 1558.5 1116T1549 1061Q1534 1027 1526 998L1498 884Q1483 837 1458.5 792T1411.5 718T1388 673.5T1476 618Q1478 616 1561 571L1695 507L1829 436Q1888 406 1929.5 378T1964 337T1917 318Q1866 309 1818 311L1738 314Q1665 312 1657 314Q1619 319 1572.5 349T1492 410L1424 475Q1360 531 1341 555.5T1310 581Q1302 581 1289.5 574T1246 544T1169 493.5T1120 464L1035 407Q1001 390 950.5 379.5T844 371T784.5 388T838 438Q874 460 912 475L1025 514Q1068 530 1149 574.5T1232 647.5T1155 744Q1132 763 1117 779L1043 866L958 948Q944 863 934 827.5T898.5 721T833.5 611T792 565L787 521Q783 498 753 449.5T658 353.5T587 293T586 231.5T571.5 149.5T538.5 115.5T518 163.5T517 278Q520 321 524 418T533 598.5T538 715L531 862Q531 953 520 955L461 909L406 874L404 830Q400 815 377.5 797.5T305 750.5T215.5 707T167 701T178 758Q200 810 235 851.5T327 940T401.5 1005T461 1088L578 1272Q620 1339 653 1400L672 1437Q682 1448 696 1449.5T748 1410L806 1357L838 1321V1321zM588 364Q627 442 653 495.5T694.5 570.5T723 607L760 646Q782 672 806.5 722T849 838.5T870 960L872 1041Q874 1078 874.5 1079.5T875 1083L870 1154L864 1250Q858 1294 847.5 1299.5T792 1248Q791 1247 741 1193T664 1092.5T627.5 990.5T615.5 828.5T599.5 541T588 364zM1061 1000Q1061 1016 1063 1019L1074 1039Q1089 1066 1106 1079L1137 1100Q1146 1109 1148 1117.5T1145 1158V1234L1141 1298Q1146 1374 1136 1379T1094 1375Q1061 1365 1022 1351.5T974.5 1320T965 1268L961 1197L966 1118Q966 1098 968 1092L1007 1052L1061 1000V1000zM1335 835Q1344 894 1352.5 962.5T1279 1025Q1261 1023 1220 1000T1138 977H1071Q1064 972 1152 901L1212 847Q1306 765 1307 768L1335 835V835zM533 1584L606 1698Q634 1743 655 1790T689 1837.5T737 1811Q813 1749 829 1731T847.5 1699T840 1667Q828 1647 790 1622T690.5 1546T574.5 1446T513 1382L499 1345Q488 1323 468.5 1310T402.5 1277.5T321.5 1249T277 1252.5T298 1314Q322 1352 356 1390T428 1463.5T484.5 1518T533 1584z" />
    <glyph glyph-name="uni8FB9"
      unicode="&#x8FB9;"
      horiz-adv-x="2048" d=" M586 521Q548 567 511.5 625.5T461.5 743T444 838T436 916.5T428 979T415.5 1011.5T343.5 1068T281 1129Q282 1155 354 1160T432 1163L453 1154Q461 1150 495.5 1146.5T562.5 1133T601 1119L619 1104L633 1100Q640 1096 647.5 1056.5T655 1014Q653 1002 627.5 953.5T598 851.5T597 747Q598 719 604 706L619 680L641 634L658 612L672 589L720 539Q724 557 725.5 562T739.5 595.5T769.5 671.5T810 761L846 829Q876 887 894 933L954 1142L985 1240L1008 1379Q992 1381 985 1382L908 1379Q881 1382 867 1403T879 1456Q890 1469 915.5 1477T960 1491.5T996 1501.5T1022 1509.5T1043 1544T1064 1650L1075 1744Q1075 1751 1077 1786.5T1086.5 1825.5T1109 1827Q1182 1813 1222 1799T1272.5 1771T1283.5 1745.5T1262 1667L1251 1620L1237 1568L1233 1537Q1367 1519 1378 1519L1507 1511Q1580 1506 1594.5 1489.5T1612 1446T1595 1364Q1576 1314 1569 1291T1537.5 1165.5T1495 1011L1450 894L1414 777Q1400 734 1373 671T1324.5 566T1218 397L1285 391H1445Q1468 391 1619 395L1765 398Q1808 398 1857 403T1910.5 394.5T1910 370Q1904 359 1883.5 344.5T1746.5 267.5T1580 196T1476 190Q1429 192 1316.5 209.5T1130 242T977 292L880 336Q757 387 680 392Q619 395 527 378.5T416 352L356 316Q319 305 271 336Q260 342 220 377T177 425T180 448Q185 456 205 461L340 479L409 494Q431 498 586 521zM765 527Q799 515 879 483L966 449Q1039 418 1041 418L1172 398Q1164 479 1158 521L1143 611Q1136 648 1137 672Q1137 690 1143 697.5T1159.5 707T1218 712T1288.5 746.5T1330 850L1366 989Q1370 1009 1387.5 1127T1398 1299Q1396 1311 1388 1349T1364 1408T1284 1428Q1242 1426 1218 1411T1173 1366T1136 1289L1114 1221Q1106 1196 1069.5 1098T1013 932.5T989 839L980 784Q976 767 968 750.5T923 690L836 588L765 527V527zM437 1705Q449 1704 464 1700L495 1688L524 1683L574 1662L598 1654Q603 1651 627 1632.5T656.5 1606T666 1571.5T670 1514Q669 1479 653 1440T587 1409Q558 1413 528.5 1443T480 1506L440 1579Q392 1655 403 1680T437 1705z" />
    <glyph glyph-name="uni53D8"
      unicode="&#x53D8;"
      horiz-adv-x="2048" d=" M746 1640L957 1664Q940 1698 932 1715L892 1787Q884 1801 865.5 1856T964 1863Q1007 1844 1031.5 1836T1069.5 1819T1094.5 1789T1110 1754T1115 1735L1118 1683L1230 1686L1431 1693L1599 1686Q1701 1681 1703 1643T1660 1586Q1633 1574 1590 1575L1474 1579Q1255 1577 1237 1563.5T1206.5 1535.5T1199 1432V1300L1205 1184Q1205 1167 1198.5 1136T1175.5 1082.5T1148 1058.5T1121.5 1086.5T1106 1165L1104 1403L1099 1470Q1096 1508 1091 1527.5T1070 1551Q1059 1552 1017 1544.5T963.5 1530T938.5 1488T924 1423L919 1274Q915 1184 900 1140T868 1078T840 1061.5T821.5 1091T821 1182L826 1232Q832 1278 833 1282L835 1410V1459Q835 1497 824 1511.5T749 1509L625 1473L579 1465Q538 1456 481.5 1432T406 1408Q361 1407 328 1449.5T295 1512T300 1543Q319 1580 537 1611zM552 292L630 324Q660 336 714 355.5T808 393.5T889 445L968 520Q1006 555 1004 571Q1002 582 972 607L911 658Q896 668 876 680L770 740Q754 748 702 767T627 812.5T605.5 850T656 858Q675 856 713 847.5T782 829T926 736T1067 679Q1083 694 1100.5 747.5T1117 853Q1115 902 1094.5 932.5T1037 965Q1014 966 987 956L949 941L891 925L812 893Q740 879 715.5 901.5T690 930.5T708 951Q763 991 859 1017.5T1058 1048Q1112 1049 1198 1045T1310.5 1036T1349.5 1012T1291 808L1248 696L1194 606Q1195 581 1221 561L1291 504Q1356 450 1422.5 421T1633.5 335.5T1840.5 259.5T1896 213Q1892 199 1873 186.5T1644 172L1519 168Q1461 180 1351 266T1174.5 415.5T1079 474Q1067 471 1028 437.5T953 381L864 324L735 264L695 209Q677 192 609 177L537 159Q405 128 380.5 126T350.5 134T365 170Q385 195 444 231L502 263Q545 289 552 292zM594 1403Q602 1400 605 1377.5T608.5 1298T597 1212Q584 1181 567 1165T514 1120T467 1093Q451 1095 445 1107.5T436.5 1152T491 1275Q554 1375 570.5 1390T594 1403zM1306 1422Q1305 1431 1318 1445.5T1397 1442L1427 1434Q1470 1422 1486 1412T1531 1377.5T1571.5 1341T1595.5 1286.5T1586 1224T1531 1217Q1510 1225 1469.5 1265T1368.5 1349.5T1306 1422z" />
    <glyph glyph-name="uni904D"
      unicode="&#x904D;"
      horiz-adv-x="2048" d=" M197 451Q255 431 283 430.5T367 444T533 481Q522 496 518 500T495 521T444 578.5T395 651.5T369 744T358 912.5T336.5 1041.5T284 1078.5T226.5 1119.5T218.5 1170.5T318 1188Q383 1180 419 1170.5T513 1129T570 1067Q568 1040 539 1005.5T499 952.5T482.5 880.5T480 783Q483 710 506 672.5T544 631L595 609Q605 640 612.5 659T647.5 737T709 895T741 986T734 961Q732 955 758 1066T791.5 1251.5T790 1415.5T783 1514Q791 1564 820 1570Q825 1571 837 1566.5T853 1562Q866 1559 909.5 1576.5T1053 1601Q1035 1624 1029 1637L1004 1707L946 1806Q929 1838 938 1852.5T961.5 1867.5T989.5 1862.5T1076.5 1838T1164.5 1795T1190 1713T1197 1648L1178 1605L1252 1598L1410 1605Q1464 1607 1478 1600T1499 1583.5T1484 1529Q1469 1500 1449.5 1432T1419.5 1320T1393 1263T1353 1246Q1344 1244 1281.5 1245.5T1059.5 1214.5T887 1174.5T858.5 1104T845 1032L861 991Q869 967 861 892T864 682Q869 606 869.5 561.5T883.5 486.5T893 450L889 443Q907 433 917 431L944 425L978 402L1159 349L1296 336L1504 332L1490 353Q1445 478 1434.5 503T1423.5 544.5T1441 576L1494 598Q1510 606 1514 642T1519.5 724T1520 803Q1516 895 1487.5 925T1432 961T1394 965Q1374 960 1369.5 952T1358.5 904T1355 862Q1357 858 1385.5 857.5T1444 848.5T1482 830.5T1492 807T1484 782Q1479 777 1456 768L1431 758L1362 748Q1353 740 1348 725T1341 673L1334 600L1330 531Q1325 479 1318 465.5T1285.5 421.5T1244 388T1236 424V523L1244 686Q1246 741 1235.5 746.5T1200 743L1149 722Q1127 717 1125 715Q1120 711 1125 660L1114 590L1110 554Q1107 543 1085.5 511T1052.5 480.5T1029 514Q1019 539 1020 594T1019 668Q1016 688 1011 696L911 718Q898 727 895.5 739T894 757Q894 784 942 796L961 800L984 809Q1008 817 1011.5 820.5T1013 859L1014 912L1009 931Q959 926 943 932T919 950T912 974Q912 982 916 989.5T927 1002L946 1014L967 1035Q981 1047 1039 1049L1243 1077Q1254 1077 1333 1070.5T1426.5 1060.5T1458.5 1056.5T1506 1048.5T1599.5 1044.5T1678.5 1032T1685 960Q1682 942 1659 863.5T1628 723L1613 587Q1607 552 1588.5 476.5T1556 376L1534 336L1705 330Q1723 329 1832 315.5T1940 265Q1939 238 1899.5 228T1753 179.5T1504 158L1480 161L1384 169L1335 177L1226 190Q1205 193 1100 220.5T982 253L819 320Q736 353 703.5 356T600 361Q560 361 547 360L433 331L372 330L298 303Q274 296 227 339.5T186 422Q187 433 197 451zM663 567Q697 532 699 517L702 494Q777 484 823 462L817 567L812 581L799 842Q782 822 767.5 804T745 767.5T738 735L745 697Q745 675 727 653L663 567V567zM967 1333L1160 1359Q1285 1375 1300.5 1396.5T1311 1454Q1308 1471 1294.5 1490.5T1259 1517T1158 1525.5T1071 1526Q1054 1522 1012 1504T954 1473T932 1445L925 1370Q918 1341 922.5 1334T967 1333zM1129 834Q1177 838 1214 842T1255.5 855T1260 891V926Q1258 931 1251.5 946.5T1241 965.5T1181 961Q1149 956 1141 951T1132 915L1133 880Q1126 833 1129 834zM306 1701Q310 1701 386.5 1679T481 1637.5T505 1603L515 1564Q531 1504 528 1487T501 1455T447 1444Q409 1448 374 1481.5T318 1558L293 1616Q266 1675 278 1687.5T306 1701z" />
    <glyph glyph-name="uni6807"
      unicode="&#x6807;"
      horiz-adv-x="2048" d=" M559 1235Q517 1229 485.5 1215.5T446 1203Q417 1203 356.5 1248T305 1328Q310 1352 332.5 1364T397 1381.5T500 1403T591.5 1424T633 1440.5T645 1504L649 1616L641 1759Q640 1860 634 1900T639 1945T676 1942Q692 1936 747 1903.5T804 1858.5T789 1813Q778 1792 772.5 1771.5T762.5 1702.5T752 1592T746 1514L745 1451Q766 1448 786 1450Q817 1453 871.5 1443.5T943.5 1411.5T961.5 1370T949 1339Q940 1330 917.5 1326T828 1305T754.5 1282T739 1233.5T731 1189Q733 1181 774.5 1168.5T863 1106Q899 1060 899.5 1035T882.5 990T831 973Q808 974 778 994T734 1015Q728 1015 717.5 1012T714 959T714.5 851.5T712.5 662T710 404Q701 260 700 226.5T686.5 154.5T661 118Q635 121 628 205T622 297L626 343L632 521L631 783Q630 974 623.5 972.5T574 903.5T499.5 806T421.5 748T367 701L349 636Q339 623 294 608T201 575.5T125 560T89.5 572.5T112 622Q135 652 190.5 699.5T261 758L350 819Q374 841 423.5 919T486 1024.5T523 1124L559 1235V1235zM986 478Q977 476 959 492T928.5 575T915.5 685.5T928 774L947 829Q970 896 997 891Q1003 889 1018 869.5T1040 837T1060 787.5T1072 701Q1071 668 1059.5 615.5T1023 521.5T986 478zM1319 1213L1613 1229Q1719 1234 1746 1232T1805 1208T1834.5 1160.5T1817 1122Q1796 1103 1733 1108.5T1603 1110Q1501 1103 1478 1083T1449.5 957T1438.5 758.5T1434 614L1436 545L1434 350Q1439 255 1422.5 204.5T1370 203Q1361 213 1354 230T1308 325T1255 425T1244 464Q1245 475 1251.5 481.5T1283.5 500T1327 537.5T1344 643Q1341 767 1339 830T1323.5 974T1286 1063Q1274 1066 1158.5 1033.5T1039 1002Q1015 1004 971.5 1048T935 1113Q940 1129 972.5 1148T1145 1188zM1678 1519Q1677 1498 1645 1482T1562.5 1465.5T1427.5 1454.5T1314.5 1436.5T1228.5 1406T1147 1389Q1126 1393 1083.5 1428.5T1050 1504Q1060 1555 1148.5 1571.5T1325 1597.5T1463 1605Q1499 1602 1558 1591T1647.5 1557.5T1678 1519zM1858 607Q1844 601 1821 610T1785 634.5T1737 701T1686 769L1621 829Q1602 847 1592.5 869.5T1591 904T1632 916Q1679 915 1757 875.5T1858 776L1875 699Q1886 654 1880.5 634T1858 607z" />
    <glyph glyph-name="uni5BBE"
      unicode="&#x5BBE;"
      horiz-adv-x="2048" d=" M831 1164Q846 1124 860.5 1115T940 1123L1149 1150L1221 1167Q1234 1169 1281 1172.5T1374.5 1183T1440 1189L1459 1187Q1466 1186 1474 1186H1540Q1587 1182 1597 1166T1607.5 1139.5T1600 1118Q1585 1097 1561.5 1091T1464 1076L1316 1057L1273 1046L1258 1049Q1273 1025 1283 1016L1308 996Q1319 986 1338 964T1359 923.5T1351 883Q1342 866 1316.5 834T1297 787Q1300 777 1331.5 779T1441 777L1527 774L1589 770Q1601 769 1631 770.5T1674 773Q1701 773 1741 768T1807 738.5T1840.5 685T1731 655Q1718 654 1703 657L1651 665L1575 668L1532 671L1481 667L1358 678Q1300 682 1204.5 668.5T1107 655L1002 645Q962 638 941 622.5T899 568L867 509L835 458L806 404L763 336Q734 288 716.5 263.5T656 209.5T591 171L533 148Q484 127 463.5 125.5T447 155Q449 176 474 207.5T515.5 257.5T554.5 297.5T597 333L637 360Q681 391 706.5 444.5T732.5 533.5T726.5 578.5T683 585Q652 582 613 572L504 544L429 527L347 503Q311 493 291 496Q260 499 249 511T228 538.5T198.5 578T182 616Q185 633 212.5 643.5T276 659T334 669L423 692Q438 694 490.5 698T592 709.5T685 720.5T741 742Q746 750 742 774.5T738.5 845T734 961Q724 1077 712 1107T686 1156L664 1184Q649 1206 648.5 1224T654 1269Q657 1286 661 1294L682 1327L692 1353L705 1363L732 1393Q762 1408 782 1371Q787 1360 787.5 1335T799.5 1309.5T875 1343L980 1398Q1029 1423 1070 1459.5T1131.5 1503.5T1179 1506Q1200 1501 1218 1489L1261 1457Q1285 1446 1286.5 1444.5T1296 1434L1319 1407Q1339 1372 1319 1349Q1313 1342 1286.5 1337T1237.5 1324.5T1143 1304.5T1003 1276T883.5 1236.5T831 1222V1164V1164zM974 753L1032 760Q1105 769 1113 776T1129 808L1146 862Q1159 905 1162 930L1165 976Q1170 1012 1162.5 1022T1122 1031Q1111 1030 1079.5 1023T956 1004.5T842 955Q832 938 837.5 890.5T841.5 803.5T852.5 751T974 753zM463 1372L473 1540Q474 1562 478 1576L495 1622L517 1704Q536 1744 555 1742Q570 1739 583 1709L593 1682Q604 1656 627 1655Q630 1654 651 1660.5T720 1674L781 1688Q788 1689 855.5 1697.5T924 1719.5T911.5 1758.5T893.5 1819T901.5 1867.5T949 1882Q976 1882 1003 1875L1068 1851Q1104 1837 1109 1828.5T1118.5 1789.5T1139 1746Q1155 1731 1227 1737T1331 1740L1407 1729L1452 1725Q1478 1722 1549.5 1704.5T1657 1664.5T1751.5 1594T1809 1514Q1807 1486 1775 1480T1651.5 1465T1520.5 1446T1480 1458.5T1483 1492Q1497 1536 1499 1546.5T1501 1567Q1499 1627 1462 1638T1373.5 1651.5T1320 1654L1253 1647Q1237 1645 1197 1644.5T1151 1638T1135 1585T1092 1511.5T1046 1488Q1038 1489 1014.5 1509T981 1557L967 1595Q953 1619 931 1624Q923 1625 889 1619L840 1613L774 1592L699 1574Q627 1555 606.5 1521.5T580 1451L569 1383L552 1314Q538 1246 513.5 1250T474.5 1293T463 1372zM1523 159Q1514 159 1493.5 178T1438 244.5T1399 301L1362 374L1323 431L1287 503Q1272 525 1267.5 541.5T1273.5 567.5T1325 562L1371 546Q1475 509 1532.5 437.5T1585 305L1577 253Q1573 195 1559.5 175.5T1523 159z" />
    <glyph glyph-name="uni5E76"
      unicode="&#x5E76;"
      horiz-adv-x="2048" d=" M824 1437L1023 1457L1275 1474Q1311 1476 1385 1472.5T1483 1449.5T1505 1410Q1503 1398 1482.5 1377.5T1384 1352T1295 1333.5T1286 1258Q1287 1173 1289 1151T1297.5 1121T1336 1113Q1385 1112 1478.5 1116.5T1607 1121Q1698 1120 1703 1084T1685 1025Q1658 998 1605.5 999.5T1435.5 997T1302.5 982T1286.5 948.5T1287 921Q1288 737 1293 648L1299 548Q1308 375 1315 302T1315 189Q1310 163 1294 126T1262.5 87.5T1228 131Q1215 158 1212 191.5T1209.5 290.5T1209.5 395.5T1208 466L1195 695Q1186 847 1185.5 877.5T1182.5 934.5T1172.5 965T1121 965L961 950Q911 945 899.5 914T869 804.5T818 660.5T753 550.5T716 490L705 430Q694 402 635 365.5T542.5 300.5T483 269T453.5 274T461 304L486 354Q492 365 525 404L572 461Q582 473 630 521T698 602T744 720.5T773 830L776 874Q778 904 771.5 911.5T734 914Q715 910 659 895.5T546 872.5T453.5 855.5T403 850Q353 858 332 911T320 985Q331 1009 481.5 1017.5T706 1047T787 1078T787 1141Q771 1249 764 1259T747 1272.5T716.5 1276.5T663.5 1282.5T610 1307T588.5 1341.5T618 1390T824 1437zM1175 1146Q1171 1277 1157.5 1299.5T1124 1330Q1122 1330 1036 1317L988 1310Q978 1306 959 1292T928 1263.5T913 1190L910 1121Q908 1095 919 1085T985 1082Q1082 1093 1125 1096T1171.5 1105T1175 1146zM902 1708Q907 1671 896.5 1628.5T860.5 1577.5T776 1651Q743 1695 717 1723T679 1773T674.5 1807T709 1822Q730 1823 779 1813T860 1784.5T902 1708zM1126 1608L1229 1795L1272 1897Q1291 1907 1332 1897Q1332 1896 1385.5 1874.5T1443 1840.5T1441 1812Q1434 1796 1407 1771T1336.5 1693.5T1218.5 1570T1114 1498Q1106 1497 1100.5 1500.5T1096 1529.5T1126 1608z" />
    <glyph glyph-name="uni73BB"
      unicode="&#x73BB;"
      horiz-adv-x="2048" d=" M584 1225Q689 1237 735.5 1228.5T795.5 1193.5T809.5 1151.5T803 1126Q795 1115 764 1108L709 1088L630 1077Q596 1071 585.5 1057.5T575 1008V899Q573 861 578 842T595 815T667 829Q679 833 743.5 849T836.5 886T853 1060L849 1187Q847 1228 841 1268T817 1357.5T793.5 1437.5T804 1486Q820 1506 871 1499T931 1493L1038 1524Q1096 1536 1106.5 1547.5T1118 1600L1114 1669Q1108 1763 1108 1767L1086 1840Q1077 1868 1083 1877T1131 1880Q1196 1869 1236.5 1854T1283.5 1817T1276 1750.5T1254 1637T1259 1557Q1268 1547 1296 1545L1376 1544Q1459 1540 1562 1474.5T1662 1375Q1660 1357 1627.5 1333T1516 1283.5T1397.5 1257T1349.5 1268.5T1356.5 1320T1373 1375.5T1360 1411T1302 1433.5T1248 1428Q1239 1420 1232.5 1382.5T1224.5 1278.5T1217 1176.5T1220 1133L1290 1126Q1303 1124 1342 1108.5T1414 1097L1470 1104Q1506 1101 1517 1079.5T1509 1018L1481 967Q1480 965 1448 878L1414 791L1389 708Q1366 650 1369 635Q1372 614 1411 578T1488.5 516.5T1589 466L1754 401Q1863 350 1907 311.5T1947.5 250T1720 237Q1652 239 1618.5 249.5T1512.5 312T1374.5 446T1280 520Q1265 516 1218 471T1114 412T1048 387L1031 361Q1020 348 995 339.5T850.5 307T725 306.5T742 355Q761 375 828 400.5T903 429L1048 473Q1099 494 1158.5 543T1215 613Q1212 624 1191.5 642.5T1114 727L1045 803Q996 863 974.5 884.5T934 902Q917 898 911.5 833T894.5 727.5T840.5 580T744.5 415.5T688 339L681 288Q676 276 635.5 240T591 201L508 150Q421 91 404.5 105.5T404 161Q417 195 478 272T548 359L645 456Q732 545 759.5 604T804 729L827 818Q783 775 759.5 755.5T665.5 687T561 612L424 502Q355 451 307 393T238 344Q227 348 218 357.5T178.5 406.5T147.5 462T172 502Q180 509 211 527.5T274 572L367 647Q436 702 453.5 735T472 822L470 919Q476 1022 461 1026L405 1016Q383 1014 320.5 1046.5T266 1119Q268 1133 300.5 1153T346 1178L459 1211Q465 1223 466 1256L462 1376Q460 1411 452.5 1441T415 1488L343 1505Q320 1512 299.5 1536.5T282 1578Q284 1594 327 1620.5T539.5 1664.5T748 1674Q779 1667 803 1644T823 1593Q818 1567 796.5 1555.5T730.5 1538.5T664 1528T625.5 1506T601 1436.5T590 1325L584 1225V1225zM1020 991Q1027 1022 1036.5 1040T1074.5 1081T1110 1117T1111 1191.5T1115 1323.5T1113.5 1400.5T1040 1380Q987 1357 976 1350T955.5 1327T946.5 1265T942.5 1133T954 1040L1020 991V991zM1056 955Q1081 919 1100 895T1179 812T1277 716Q1293 778 1312.5 842T1307.5 963.5T1192 1002L1116 976L1056 955V955z" />
    <glyph glyph-name="uni6CE2"
      unicode="&#x6CE2;"
      horiz-adv-x="2048" d=" M368 1370Q418 1365 457 1336L499 1295L538 1262Q566 1237 579.5 1204T576 1149.5T527 1120.5T437 1148L346 1205Q333 1211 278.5 1234T206.5 1289.5T198.5 1340.5T281 1365T368 1370zM360 630L519 927L664 1182Q683 1216 694 1204.5T706 1173.5T697 1106Q691 1078 684 1063L675 1045Q669 1034 662.5 1017T655 997L643 973L634 950L571 803L539 720Q505 634 496 590L486 534Q482 516 477 492L462 428Q450 374 454 345T458 315L444 277Q512 371 536 398L597 462Q621 490 669.5 571T740 725L771 831L809 1008Q812 1023 815.5 1113T818 1218L811 1286Q808 1330 801 1342L780 1364Q770 1375 762.5 1394T758 1435Q758 1442 765 1466T778 1499L830 1539Q867 1569 878 1565T892 1551T895 1540L891 1516Q926 1523 983 1539T1068 1561V1604L1046 1825Q1045 1826 1045.5 1827.5T1047 1836L1050 1878Q1051 1893 1057 1901.5T1082 1914Q1106 1918 1162.5 1894T1221.5 1859.5T1217 1827Q1216 1826 1202 1744T1191 1648L1201 1593L1199 1581Q1214 1576 1223 1576L1294 1581Q1302 1580 1369.5 1569.5T1454 1554T1563.5 1492T1651 1406Q1648 1390 1629.5 1384.5T1546 1369T1432.5 1327T1360 1286T1320.5 1292.5T1307 1332L1329 1396Q1335 1429 1319 1446.5T1248 1467Q1216 1468 1185 1459Q1183 1434 1182 1422L1178 1393L1173 1239Q1169 1182 1186 1178L1211 1176Q1211 1175 1222.5 1167T1270 1151T1314 1143Q1314 1142 1341.5 1146.5T1395 1153Q1488 1157 1483 1101Q1481 1087 1472 1079L1451 1065Q1445 1060 1438 1045L1412 995Q1395 958 1379.5 890.5T1342 784.5T1325 733Q1327 724 1374.5 675.5T1434.5 618.5T1506.5 577T1584 537L1853 427L1923 386Q1980 354 1970 330.5T1885 311L1792 312L1670 320Q1604 322 1576 330.5T1520 362.5T1448 427L1269 594L1242 622Q1229 626 1200 594Q1163 555 1133 532.5T1054.5 491.5T995 459L970 420Q959 410 890.5 393.5T737 382L681 387L640 390Q643 341 635 326T604 290L540 230Q532 223 476 182.5T386 126T345.5 118.5T360 162L396 210L444 275Q413 286 405.5 293.5T380 334.5T361.5 369.5T355.5 393T328.5 443T307 479V488L301 502L306 567Q305 568 300.5 574.5T288 597T271 623.5T256 668.5T299 659L360 630V630zM654 404Q710 434 771 464T915.5 520T1036 565T1175 689L1155 714L1052 834Q995 899 988 904L884 974Q884 969 883.5 966T877 942.5T865 881T827 734.5T762 566.5T654 404zM901 1080Q950 1062 986 1038Q1000 1071 1010 1087.5T1031 1116L1066 1152Q1073 1164 1073 1176L1068 1441Q1062 1438 1005.5 1415T939.5 1384.5T919.5 1358T905 1247T904 1091L901 1080V1080zM1016 1019L1186 851L1230 813Q1237 863 1239 888L1242 942Q1245 986 1233.5 1013T1198 1040.5T1106 1024L1074 1016L1016 1019V1019zM722 1499Q672 1502 640 1534L618 1560L566 1610L488 1699Q466 1721 460 1733.5T457.5 1757.5T503 1768Q531 1767 599 1753.5T685.5 1727.5T733 1682T776.5 1614.5T791 1553Q790 1494 722 1499z" />
    </font>
</defs>
</svg>
